<svg width="50" height="50" fill="none" xmlns="http://www.w3.org/2000/svg"><path d="M14.13 19.565H9.783c-.6 0-1.087.487-1.087 1.087v8.696a1.087 1.087 0 002.174 0v-7.609h3.26a1.087 1.087 0 000-2.174z" fill="#FF114D"/><path d="M11.957 23.913H9.783a1.087 1.087 0 000 2.174h2.174a1.087 1.087 0 000-2.174z" fill="#FF114D"/><path d="M25 0C11.215 0 0 11.215 0 25s11.215 25 25 25 25-11.215 25-25S38.785 0 25 0zm0 47.826C12.413 47.826 2.174 37.586 2.174 25 2.174 12.413 12.413 2.174 25 2.174S47.826 12.413 47.826 25 37.586 47.826 25 47.826z" fill="#FF114D"/><path d="M39.41 13.45C35.879 9.048 30.627 6.522 25 6.522c-5.626 0-10.878 2.526-14.411 6.928a1.086 1.086 0 00.168 1.528 1.083 1.083 0 001.526-.167c3.12-3.887 7.754-6.115 12.717-6.115 4.963 0 9.598 2.228 12.715 6.115a1.086 1.086 0 101.696-1.361zm-1.054 22.717a1.088 1.088 0 00-1.534.041c-3.12 3.285-7.318 5.096-11.822 5.096s-8.702-1.81-11.82-5.096a1.084 1.084 0 00-1.534-.04 1.084 1.084 0 00-.042 1.536c3.533 3.724 8.29 5.774 13.396 5.774 5.107 0 9.863-2.05 13.398-5.774a1.086 1.086 0 00-.042-1.537zM21.074 26.059a3.264 3.264 0 002.839-3.233 3.265 3.265 0 00-3.26-3.26h-2.175c-.6 0-1.087.486-1.087 1.086v8.696a1.087 1.087 0 002.174 0v-1.724l2.491 2.493c.214.211.492.318.77.318s.556-.107.767-.32a1.088 1.088 0 000-1.537l-2.52-2.52zm-1.509-2.146V21.74h1.087c.598 0 1.087.487 1.087 1.087s-.489 1.087-1.087 1.087h-1.087zm11.957 4.347H28.26v-6.52h3.26a1.087 1.087 0 000-2.175h-4.347c-.6 0-1.087.487-1.087 1.087v8.696c0 .6.487 1.087 1.087 1.087h4.348a1.087 1.087 0 000-2.174z" fill="#FF114D"/><path d="M29.348 23.913h-2.174a1.087 1.087 0 000 2.174h2.174a1.087 1.087 0 000-2.174zm10.869 4.347h-3.26v-6.52h3.26a1.087 1.087 0 000-2.175H35.87c-.6 0-1.087.487-1.087 1.087v8.696c0 .6.486 1.087 1.087 1.087h4.347a1.087 1.087 0 000-2.174z" fill="#FF114D"/><path d="M38.043 23.913H35.87a1.087 1.087 0 000 2.174h2.173a1.087 1.087 0 000-2.174z" fill="#FF114D"/></svg>