<svg width="53" height="46" fill="none" xmlns="http://www.w3.org/2000/svg"><path d="M11.177 26.915a1.042 1.042 0 00-.732-.303c-.273 0-.54.11-.733.303-.192.193-.303.46-.303.732 0 .274.11.54.303.734a1.042 1.042 0 001.464 0 1.04 1.04 0 00.001-1.466zm9.766 0a1.043 1.043 0 00-.732-.303c-.272 0-.54.11-.732.303-.193.193-.304.46-.304.732 0 .274.111.54.304.734.192.192.46.302.732.302.272 0 .54-.11.732-.302a1.04 1.04 0 000-1.466zm-1.9 5.687a1.035 1.035 0 00-1.267.734 2.538 2.538 0 01-2.448 1.881 2.538 2.538 0 01-2.448-1.881 1.035 1.035 0 10-2.001.534 4.612 4.612 0 004.449 3.419 4.612 4.612 0 004.449-3.419 1.036 1.036 0 00-.734-1.268zM26.512.906c-.572 0-1.035.463-1.035 1.035v6.575a1.036 1.036 0 102.071 0V1.941c0-.572-.463-1.035-1.035-1.035zm.733 10.538a1.04 1.04 0 00-1.465 0c-.193.193-.303.46-.303.732 0 .272.11.54.303.732.193.193.46.304.733.304.272 0 .54-.111.732-.304a1.04 1.04 0 00.303-.732c0-.272-.11-.54-.303-.732zm-7.044-1.123l-2.644-2.642a1.036 1.036 0 00-1.464 1.466l2.644 2.641a1.032 1.032 0 001.465 0 1.036 1.036 0 000-1.465zm16.733-2.639a1.036 1.036 0 00-1.464 0l-2.811 2.814a1.036 1.036 0 101.465 1.464l2.81-2.813a1.036 1.036 0 000-1.465z" fill="#FF114D"/><path d="M52.476 26.323c-2.188-8.163-10.609-13.026-18.773-10.838a15.228 15.228 0 00-7.21 4.31 15.249 15.249 0 00-11.165-4.825C6.876 14.97 0 21.846 0 30.298c0 8.451 6.876 15.328 15.328 15.328 4.272 0 8.282-1.75 11.176-4.84a15.395 15.395 0 0011.17 4.834c1.31 0 2.64-.17 3.964-.524C49.8 42.91 54.664 34.487 52.476 26.324zM15.328 43.555c-7.31 0-13.257-5.947-13.257-13.256 0-7.31 5.947-13.257 13.257-13.257 3.784 0 7.328 1.586 9.843 4.377-.275.389-.534.791-.775 1.209a15.227 15.227 0 00-1.531 11.63 15.253 15.253 0 002.312 4.915 13.195 13.195 0 01-9.85 4.382zm25.774-.459c-7.061 1.892-14.344-2.313-16.236-9.373a13.17 13.17 0 011.324-10.06 13.446 13.446 0 011.137-1.666 13.157 13.157 0 016.912-4.51 13.233 13.233 0 013.428-.453c5.853 0 11.223 3.911 12.808 9.827 1.892 7.06-2.313 14.344-9.373 16.236z" fill="#FF114D"/><path d="M34.637 28.26a2.248 2.248 0 00-2.751-1.588 2.249 2.249 0 00-1.589 2.75 1.036 1.036 0 002.001-.535.175.175 0 01.338-.09 1.035 1.035 0 102-.537zm9.375-2.512a2.232 2.232 0 00-1.047-1.364 2.23 2.23 0 00-1.705-.224 2.23 2.23 0 00-1.363 1.047c-.3.52-.38 1.125-.225 1.704a1.036 1.036 0 102-.536.172.172 0 01.018-.133.171.171 0 01.107-.081.172.172 0 01.132.017.171.171 0 01.082.107 1.035 1.035 0 102-.537zm-.908 6.499a1.036 1.036 0 00-2 .536 2.472 2.472 0 01-1.747 3.024 2.452 2.452 0 01-1.873-.247 2.453 2.453 0 01-1.15-1.499 1.035 1.035 0 10-2.002.536 4.51 4.51 0 002.116 2.757 4.514 4.514 0 003.446.454 4.546 4.546 0 003.21-5.561z" fill="#FF114D"/></svg>