<svg width="50" height="50" fill="none" xmlns="http://www.w3.org/2000/svg"><path d="M27.505 18.61c4.713-1.262 7.938-4.86 7.938-8.972 0-2.564-1.231-4.962-3.467-6.75C29.805 1.152 26.93.195 23.883.195c-3.048 0-5.923.957-8.094 2.693-2.235 1.788-3.467 4.186-3.467 6.75 0 2.328 1.042 4.563 2.933 6.291 1.701 1.556 3.987 2.607 6.485 2.989 1.234 2.316 2.782 3.957 4.606 4.882.685.347 1.505-.227 1.417-.987-.002-.021-.219-1.908-.258-4.204zm-1.183-1.735a.98.98 0 00-.784.958c-.002 1.14.044 2.215.098 3.089-.892-.832-1.69-1.95-2.38-3.344a.98.98 0 00-.768-.538c-4.678-.533-8.205-3.715-8.205-7.402 0-4.126 4.306-7.482 9.6-7.482 5.293 0 9.599 3.356 9.599 7.482 0 3.396-2.944 6.372-7.16 7.237z" fill="#FF114D"/><path d="M24.79 8.984a.99.99 0 00-.916-.604.988.988 0 00-.917.664.988.988 0 00.331 1.093.99.99 0 001.122.05.99.99 0 00.38-1.203zm-2.892-.44a.994.994 0 00-1.11.015.988.988 0 00-.376 1.07.99.99 0 00.88.708.988.988 0 00.967-.603.989.989 0 00-.361-1.19zm5.062 0a.994.994 0 00-1.11.015.986.986 0 00-.376 1.07c.113.394.47.682.88.708a.99.99 0 00.968-.603.99.99 0 00-.362-1.19zM20.628 35.95a7.46 7.46 0 00.479-5.727L19.47 25.1a7.484 7.484 0 00-2.374-3.505 7.483 7.483 0 00-7.064-1.361 7.46 7.46 0 00-4.388 3.71 7.462 7.462 0 00-.479 5.728l1.637 5.123c.262.82.654 1.563 1.144 2.216l-.148.445C3.248 38.792 0 43.463 0 48.797c0 .542.44.98.98.98h18.938a.98.98 0 00.98-.98c0-3.7-1.547-7.134-4.123-9.331a7.451 7.451 0 003.853-3.516zM7.386 24.843a5.514 5.514 0 013.243-2.742 5.523 5.523 0 014.563.54 14.458 14.458 0 01-2.082 2.779c-.814.84-1.785 1.553-2.884 1.97-.319.12-.644.191-.972.279a.979.979 0 00-.642 1.343l.01.026c.046.095.1.22.156.367.293.766.675 2.181.288 3.108a1.513 1.513 0 01-.695.75l-1.338-4.188a5.513 5.513 0 01.353-4.232zm6.245 15.168l-.32.956a2.176 2.176 0 01-1.099 1.267 2.176 2.176 0 01-1.671.118 2.175 2.175 0 01-1.267-1.099 2.176 2.176 0 01-.118-1.672l.344-1.032.017.013c.064.046.128.091.193.135l.025.018a7.546 7.546 0 003.896 1.295zm5.264 7.806H2.004c.312-3.547 2.296-6.61 5.102-7.996-.088.79.06 1.599.414 2.309a4.124 4.124 0 002.4 2.082 4.17 4.17 0 003.17-.225 4.124 4.124 0 002.082-2.4l.237-.711c1.973 1.633 3.243 4.152 3.486 6.94zm-3.252-10.024c-1.94.62-4.126.093-5.58-1.331a5.513 5.513 0 01-1.01-1.352c.776-.353 1.42-.954 1.775-1.733.553-1.21.383-2.622.107-3.67-.033-.127-.082-.249-.114-.374a.121.121 0 01-.004-.035c-.021-.03-.012-.045.026-.046.027-.02.078-.028.109-.04a9.164 9.164 0 002.407-1.387c.87-.682 1.634-1.499 2.306-2.376.366-.477.705-.974 1.02-1.485.404.515.715 1.1.917 1.733l1.637 5.123a5.555 5.555 0 01-3.596 6.973zm31.196 2.419a5.602 5.602 0 00.742-2.778 5.57 5.57 0 00-3.562-5.208l.816-2.555c1.26-3.943-.923-8.177-4.867-9.438a7.457 7.457 0 00-5.727.48 7.461 7.461 0 00-3.71 4.387l-1.638 5.123a7.46 7.46 0 00.479 5.727 7.451 7.451 0 003.698 3.453c-2.503 2.214-3.968 5.568-3.968 9.2 0 .54.439.98.98.98h8.194a.98.98 0 100-1.96h-7.172c.21-2.436 1.194-4.656 2.766-6.276a4.75 4.75 0 003.141 2.895 4.703 4.703 0 005.96-4.574 8.256 8.256 0 011.921 1.35c1.723 1.61 2.873 3.974 3.104 6.604h-1.879a.98.98 0 000 1.96h2.903a.98.98 0 00.98-.98c0-3.243-1.2-6.238-3.161-8.39zm-3.419-6.114a3.616 3.616 0 012.2 3.336c0 .492-.096.965-.281 1.405a10.203 10.203 0 00-1.514-.937c-.39-.197-.793-.36-1.203-.507-.097-.035-.196-.064-.294-.095-.061-.02-.129-.022-.16-.075-.042-.072-.059-.171-.086-.249a7.448 7.448 0 001.116-2.182l.222-.696zm-8.28-11.643a5.514 5.514 0 014.231-.354 5.514 5.514 0 013.243 2.742 5.514 5.514 0 01.353 4.232c-.034.107-.054.244-.11.342-.005.01-.004.021-.012.028-.034.031-.168.032-.215.04a5.549 5.549 0 01-.398.049 4.11 4.11 0 01-1.627-.17 4.01 4.01 0 01-.822-.37c-2.365-1.405-3.187-4.985-3.195-5.02a.988.988 0 00-1.43-.647c-.221.123-.396.336-.592.494a5.442 5.442 0 01-.75.518c-.307.173-.64.315-.99.362a5.511 5.511 0 012.314-2.246zm-4.38 8.365l1.334-4.175c1.066.164 2.14-.225 3.03-.792l.053.138c.493 1.265 1.392 3.007 2.889 4.195a6.038 6.038 0 003.173 1.3c.316.029.634.034.95.017-.115.364-.564 1.768-.672 2.105-.144.452-.28.904-.486 1.332-.207.43-.476.835-.79 1.197a5.575 5.575 0 01-4.179 1.92 5.554 5.554 0 01-5.302-7.236zm7.515 11.636a2.764 2.764 0 01-2.492-1.608 2.726 2.726 0 01-.23-.846 7.474 7.474 0 004.989-1.478l.465 1.347a2.74 2.74 0 01-2.732 2.585z" fill="#FF114D"/><path d="M42.74 47.787a.988.988 0 00-1.167.058.987.987 0 00-.315 1.042c.12.397.49.68.905.696a.99.99 0 00.944-.62.99.99 0 00-.368-1.176z" fill="#FF114D"/></svg>