<svg width="50" height="50" fill="none" xmlns="http://www.w3.org/2000/svg"><path d="M27.305 20.405H22.63v-4.742c0-.615-.503-1.118-1.118-1.118-.615 0-1.119.503-1.119 1.118v4.742h-4.741c-.615 0-1.118.503-1.118 1.118 0 .615.503 1.119 1.118 1.119h4.742v4.685c0 .615.503 1.119 1.118 1.119.615 0 1.118-.504 1.118-1.119v-4.686h4.675c.615 0 1.118-.503 1.118-1.118 0-.615-.492-1.118-1.118-1.118z" fill="#FF114D"/><path d="M33.444 9.445c-6.62-6.609-17.39-6.609-23.999 0-6.61 6.61-6.61 17.38 0 24 6.632 6.61 17.368 6.61 24 0 6.609-6.61 6.609-17.379 0-24zm-1.588 22.423c-5.748 5.737-15.097 5.748-20.834 0-5.748-5.748-5.748-15.098 0-20.834 5.76-5.738 15.075-5.738 20.834 0 5.749 5.736 5.749 15.086 0 20.834z" fill="#FF114D"/><path d="M48.788 42.961l-.034-.033L39.25 33.4c6.598-9.83 3.98-23.16-5.85-29.759C23.57-2.957 10.24-.34 3.642 9.49-2.957 19.32-.34 32.65 9.49 39.248a21.458 21.458 0 0011.944 3.646c4.26 0 8.42-1.263 11.954-3.634l9.506 9.506a4.134 4.134 0 005.85.044 4.134 4.134 0 00.044-5.849zM32.852 36.9c-8.544 6.319-20.577 4.507-26.885-4.026C-.34 24.341 1.46 12.297 10.004 5.99c8.544-6.307 20.578-4.506 26.885 4.038a19.226 19.226 0 01-.023 22.88 19.408 19.408 0 01-4.014 3.993zm14.326 10.289a1.903 1.903 0 01-2.696 0L35.2 37.907c.481-.403.95-.828 1.41-1.286.458-.46.883-.929 1.285-1.41l9.282 9.282a1.917 1.917 0 010 2.696z" fill="#FF114D"/></svg>