<svg width="50" height="50" fill="none" xmlns="http://www.w3.org/2000/svg"><path d="M33.726 29.084a1.19 1.19 0 101.188 1.189 1.19 1.19 0 00-1.188-1.189zm6.815 2.377a1.19 1.19 0 000-2.377 1.19 1.19 0 00-1.188 1.189 1.19 1.19 0 001.188 1.188zM9.459 29.084a1.19 1.19 0 101.188 1.189 1.19 1.19 0 00-1.188-1.189zm6.815 2.377a1.19 1.19 0 000-2.377 1.19 1.19 0 000 2.377z" fill="#FF114D"/><path d="M46.346 40.206c.993-.736 1.78-2.035 2.348-3.881a.733.733 0 10-1.4-.431c-.373 1.21-1.024 2.703-2.065 3.292a12.85 12.85 0 00-4.234-2.282c3.024-1.446 5.117-4.535 5.117-8.105v-1.483a.733.733 0 00-.608-.722c-3.629-.624-6.14-4.306-6.164-4.343a.733.733 0 00-1.289.131c-.017.042-1.797 4.201-9.164 4.201a.733.733 0 00-.733.733V28.8c0 3.57 2.094 6.66 5.118 8.105a12.854 12.854 0 00-4.233 2.282c-.58-.329-1.097-.97-1.541-1.913-1.744-3.71-1.744-11.054-.522-14.243a10.85 10.85 0 013.994-5.074 10.821 10.821 0 016.163-1.918c2.211 0 4.343.663 6.164 1.918a10.851 10.851 0 013.994 5.074c.846 2.208 1.102 6.554.596 10.11a.733.733 0 101.452.207c.545-3.833.26-8.392-.68-10.841a12.312 12.312 0 00-4.53-5.758 12.282 12.282 0 00-6.996-2.176c-2.509 0-4.928.753-6.995 2.176a12.311 12.311 0 00-4.531 5.758c-1.349 3.518-1.353 11.311.564 15.39.485 1.031 1.071 1.804 1.751 2.31A12.891 12.891 0 0025 44.897a12.927 12.927 0 00-8.272-7.994 9.042 9.042 0 003.736-3.326c.375.194.793.298 1.222.298a2.676 2.676 0 002.672-2.673c0-.57-.18-1.1-.486-1.534 1.09-3.169 1.899-7.438.004-10.57-1.063-1.756-2.828-2.885-4.971-3.179a6.339 6.339 0 00-3.47.517c-1.019-1.213-2.179-1.865-4.585-1.865-1.974 0-5.101.785-7.421 2.995a.733.733 0 101.011 1.06c2.006-1.91 4.707-2.589 6.41-2.589 2.325 0 2.986.669 3.797 1.77a.738.738 0 00.998.174c.013-.009 1.308-.85 3.06-.61 1.697.233 3.087 1.116 3.916 2.486 1.234 2.04 1.24 5.088.026 8.852a2.652 2.652 0 00-.801-.175v-1.219a.733.733 0 00-.61-.722c-3.628-.624-6.139-4.306-6.163-4.343a.733.733 0 00-1.289.131c-.017.042-1.797 4.201-9.164 4.201a.733.733 0 00-.733.733v1.22a2.654 2.654 0 00-.859.197c-1.17-3.093-1.228-5.766-.17-7.954a.733.733 0 10-1.32-.638c-1.294 2.676-1.194 5.892.297 9.564a2.66 2.66 0 00-.46 1.498 2.676 2.676 0 002.672 2.673c.429 0 .847-.105 1.221-.298a9.04 9.04 0 003.737 3.326C3.791 38.548 0 43.43 0 49.18v.029c0 .404.328.733.733.733h48.534a.733.733 0 00.733-.733v-.03c0-3.486-1.395-6.652-3.654-8.972zm-9.213-2.428c.735 0 1.454.07 2.15.204a2.35 2.35 0 01-2.15 1.41 2.35 2.35 0 01-2.15-1.41 11.419 11.419 0 012.15-.204zM29.62 28.8v-.763c5.56-.199 8.143-2.645 9.186-4.078 1.009 1.198 3.073 3.252 5.84 3.951v.89c0 4.143-3.37 7.513-7.513 7.513-4.142 0-7.513-3.37-7.513-7.513zm-16.754 8.98c.735 0 1.454.07 2.15.203a2.35 2.35 0 01-2.15 1.41 2.35 2.35 0 01-2.15-1.41 11.419 11.419 0 012.15-.204zm8.82-5.37c-.19 0-.375-.047-.542-.131a8.882 8.882 0 00.621-2.278 1.207 1.207 0 011.127 1.203c0 .665-.541 1.207-1.206 1.207zm-17.639 0a1.208 1.208 0 01-1.206-1.206c0-.639.499-1.162 1.127-1.203.107.797.318 1.56.62 2.278a1.197 1.197 0 01-.54.132zm1.325-3.112v-.008a7.588 7.588 0 01-.019-.49v-.763c5.56-.199 8.143-2.645 9.186-4.078 1.009 1.198 3.073 3.252 5.84 3.951v.89c0 .165-.007.328-.017.49v.008c-.258 3.911-3.52 7.015-7.496 7.015-3.975 0-7.237-3.104-7.494-7.015zM1.487 48.475c.29-4.729 3.475-8.687 7.8-10.12a3.82 3.82 0 003.58 2.503 3.82 3.82 0 003.58-2.503c4.324 1.434 7.51 5.392 7.799 10.12H1.488zm24.267 0c.29-4.729 3.474-8.687 7.8-10.12a3.82 3.82 0 003.58 2.503 3.82 3.82 0 003.58-2.503c4.324 1.434 7.509 5.392 7.799 10.12H25.754z" fill="#FF114D"/><path d="M20.15 10.922a.733.733 0 00.035-1.036c-1.67-1.784-2.397-3.564-2.16-5.29.357-2.613 2.233-3.05 3.024-3.116 1.497-.126 2.895.637 3.251 1.774a.733.733 0 001.4 0c.356-1.137 1.753-1.9 3.251-1.774.79.066 2.667.503 3.024 3.116.617 4.505-5.492 8.091-6.976 8.891a21.81 21.81 0 01-2.724-1.746.733.733 0 00-.882 1.17 22.134 22.134 0 003.286 2.061c.2.098.44.098.641 0a22.25 22.25 0 004.301-2.877c2.845-2.45 4.16-5.112 3.807-7.698-.41-2.992-2.517-4.223-4.354-4.378C27.44-.118 25.91.496 25 1.562 24.09.496 22.56-.118 20.926.019c-1.837.155-3.945 1.386-4.354 4.378-.3 2.185.556 4.369 2.542 6.49a.733.733 0 001.036.035z" fill="#FF114D"/></svg>