<svg width="50" height="50" fill="none" xmlns="http://www.w3.org/2000/svg"><path d="M38.288 15.37c1.488-2.578 2.065-5.19 1.713-7.761-.318-2.323-1.228-4.185-2.705-5.534C36.004.895 34.345.189 32.5.034c-1.744-.147-3.522.22-5.005 1.03-1.048.573-1.9 1.346-2.494 2.249-.595-.903-1.446-1.676-2.494-2.248-1.483-.812-3.26-1.178-5.005-1.031-1.846.155-3.505.86-4.797 2.041-1.477 1.349-2.387 3.21-2.705 5.534-.326 2.387.147 4.812 1.409 7.208 1.011 1.922 2.535 3.837 4.53 5.691a.734.734 0 00.999-1.074c-4.165-3.872-6.01-7.783-5.485-11.626.503-3.67 2.81-6.03 6.172-6.313 3.062-.258 5.93 1.343 6.676 3.723a.74.74 0 00.7.514.74.74 0 00.7-.514c.746-2.38 3.615-3.981 6.676-3.723 3.362.283 5.67 2.642 6.172 6.313.306 2.237-.207 4.53-1.523 6.815-1.079 1.872-2.695 3.745-4.803 5.564-3.027 2.612-6.219 4.367-7.222 4.891a40.713 40.713 0 01-5.866-3.782.733.733 0 10-.9 1.158c3.303 2.568 6.319 4.045 6.445 4.107a.745.745 0 00.642 0c.164-.08 4.058-1.99 7.836-5.244 2.24-1.928 3.966-3.93 5.13-5.948z" fill="#FF114D"/><path d="M19.289 12.205c.784 0 1.423-.639 1.423-1.423 0-.785-.639-1.423-1.423-1.423-.785 0-1.424.638-1.424 1.423 0 .784.639 1.423 1.424 1.423zm12.846-1.423a1.425 1.425 0 00-2.846 0c0 .784.638 1.423 1.422 1.423.785 0 1.424-.639 1.424-1.423zM25 15.61a3.25 3.25 0 003.115-2.288.733.733 0 00-1.4-.438A1.79 1.79 0 0125 14.143a1.79 1.79 0 01-1.715-1.259.734.734 0 00-1.4.438A3.25 3.25 0 0025 15.61zm24.66 3.503a2.214 2.214 0 00-3.792.071 2.022 2.022 0 00-3.07 1.047l-.344 1.062a2.003 2.003 0 00-3.03 1.076l-.225.725a2.065 2.065 0 00-.824-.328 2.054 2.054 0 00-2.298 1.398l-2.328 7.15c-.842.376-3.057 1.527-4.679 3.83-1.978 2.81-2.331 6.281-2.345 6.428a.743.743 0 00-.004.07v7.623c0 .405.329.733.734.733h8.449a.733.733 0 00.733-.733v-5.253l5.399-4.409c2.916-2.38 4.126-6.41 5.193-9.966.12-.397.682-2.234.682-2.234a.734.734 0 00-1.401-.432s-.565 1.844-.686 2.244c-1.006 3.354-2.148 7.155-4.716 9.252l-5.668 4.629a.734.734 0 00-.27.568v4.867h-6.982v-6.85c.04-.338.425-3.339 2.082-5.692 1.725-2.45 4.3-3.43 4.325-3.44a.688.688 0 00.074-.032l.012-.006a.742.742 0 00.177-.128l4.168-4.072c.212-.22.438-.427.656-.64.16-.156.302-.322.53-.37a.711.711 0 01.54.101c.33.22.402.7.156 1.01l-5.578 7.022a.733.733 0 001.02 1.038l3.02-2.315a17.498 17.498 0 006.16-8.931l1.545-5.17a.754.754 0 01.878-.493c.418.095.673.54.547.95l-1.124 3.646a.733.733 0 101.402.432l1.124-3.647a2.214 2.214 0 00-.242-1.83zM37.472 24.62a.604.604 0 01.796-.37.604.604 0 01.345.731l-.75 2.417-1.9 1.856 1.509-4.634zm2.89 1.197c-.168 0-.331.021-.49.058l.953-3.07a.542.542 0 111.035.327l-.897 2.771a2.174 2.174 0 00-.575-.086h-.026zm2.07 2.792a2.174 2.174 0 00-.231-1.767l1.053-3.257.001-.002.938-2.9a.56.56 0 011.005-.12c.05.079.122.243.06.451l-1.134 3.793a16.164 16.164 0 01-1.692 3.802zM20.93 35.145c-1.622-2.305-3.837-3.455-4.679-3.83l-2.328-7.15a2.054 2.054 0 00-2.298-1.4 2.064 2.064 0 00-.824.329l-.225-.725a2.007 2.007 0 00-3.03-1.076l-.343-1.062a2.021 2.021 0 00-3.07-1.046 2.204 2.204 0 00-2.25-1.085 2.213 2.213 0 00-1.786 2.843l2.318 7.52c.118.384.236.776.355 1.173 1.067 3.555 2.277 7.585 5.193 9.966a.734.734 0 00.928-1.136c-2.568-2.097-3.71-5.898-4.716-9.252-.12-.4-.24-.796-.359-1.183L1.5 20.512a.755.755 0 01.603-.96.745.745 0 01.822.503l1.546 5.17a17.498 17.498 0 006.159 8.932l3.02 2.315a.733.733 0 001.02-1.038l-5.577-7.021a.698.698 0 01.047-.92.703.703 0 01.984-.012l.849.829.002.002 4.168 4.071.003.003a.73.73 0 00.074.062c.008.007.017.012.025.018a.73.73 0 00.07.043l.017.008a.742.742 0 00.072.032c.025.01 2.601.99 4.327 3.44 1.657 2.354 2.042 5.357 2.08 5.693v6.85H14.83v-4.868a.733.733 0 00-.269-.568l-3.39-2.768a.734.734 0 00-.928 1.136l3.12 2.548v5.253c0 .405.329.733.734.733h8.45a.733.733 0 00.733-.733v-7.623a.748.748 0 00-.004-.07c-.014-.147-.367-3.618-2.345-6.427zm-9.48-10.656a.592.592 0 01.412-.276.595.595 0 01.666.405l1.51 4.635-1.9-1.856-.75-2.416a.592.592 0 01.062-.492zm-5.574.317l-1.133-3.792a.553.553 0 01.059-.453.56.56 0 011.005.12l.938 2.901v.002L7.8 26.84a2.173 2.173 0 00-.23 1.767 16.17 16.17 0 01-1.693-3.802zm3.736 1.01a2.21 2.21 0 00-.575.086l-.896-2.771a.537.537 0 01.04-.428.542.542 0 01.994.1l.954 3.07a2.152 2.152 0 00-.517-.057z" fill="#FF114D"/></svg>