<svg width="58" height="54" fill="none" xmlns="http://www.w3.org/2000/svg"><path d="M53.033 15.702H50.59v-1.596l1.523-1.706a4.835 4.835 0 001.227-3.227V5.13C53.341 2.3 51.077 0 48.294 0h-2.321c-2.783 0-5.047 2.3-5.047 5.129v4.044c0 1.196.436 2.342 1.227 3.227l1.524 1.706v1.596h-2.443c-2.372 0-4.36 1.7-4.85 3.963a5.416 5.416 0 00-.763-.055h-2.86v-1.952l1.745-1.953a5.334 5.334 0 001.353-3.56V7.59c0-3.123-2.5-5.664-5.574-5.664a.879.879 0 00-.872.886c0 .49.39.886.872.886 2.112 0 3.83 1.746 3.83 3.892v4.556c0 .877-.32 1.718-.9 2.368l-1.797 2.01a.889.889 0 00-.4.746v3.227c0 .489.39.886.871.886h3.733c2.062 0 3.74 1.705 3.74 3.801v5.56h-20.77v-5.56a3.807 3.807 0 012.448-3.567.847.847 0 00.191-.066c.349-.11.72-.168 1.102-.168h3.733a.879.879 0 00.872-.887V17.27a.889.889 0 00-.4-.745l-1.798-2.011c-.58-.65-.9-1.491-.9-2.369V7.59c0-2.146 1.718-3.892 3.83-3.892a.879.879 0 00.872-.886c0-.49-.39-.886-.872-.886-3.074 0-5.574 2.541-5.574 5.664v4.556c0 1.318.48 2.582 1.353 3.56l1.745 1.952v1.952h-2.86a5.39 5.39 0 00-.72.05c-.491-2.262-2.478-3.958-4.849-3.958h-2.442v-1.596l1.524-1.706a4.835 4.835 0 001.227-3.227V5.13C17.074 2.3 14.81 0 12.027 0H9.706C6.923 0 4.659 2.3 4.659 5.129v4.044c0 1.196.436 2.342 1.227 3.227l1.524 1.706v1.596H4.967C2.228 15.702 0 17.966 0 20.75v5.723c0 .49.39.886.872.886h13.566a.879.879 0 00.872-.886c0-.49-.39-.886-.872-.886H1.744V20.75c0-1.806 1.446-3.276 3.223-3.276h3.314a.879.879 0 00.872-.886v-2.865a.89.89 0 00-.39-.738L7.178 11.21a3.05 3.05 0 01-.774-2.036V5.13c0-1.851 1.481-3.357 3.303-3.357h2.321c1.821 0 3.303 1.506 3.303 3.357v4.044a3.05 3.05 0 01-.774 2.036l-1.587 1.776a.89.89 0 00-.39.738v2.865c0 .49.39.886.872.886h3.314c1.584 0 2.903 1.166 3.172 2.697a5.588 5.588 0 00-3.088 5.013v6.446c0 .49.39.886.872.886h22.513a.879.879 0 00.872-.886v-6.446a5.588 5.588 0 00-3.047-4.991c.26-1.542 1.585-2.72 3.175-2.72h3.314a.879.879 0 00.872-.885v-2.865a.889.889 0 00-.39-.738l-1.586-1.776a3.05 3.05 0 01-.774-2.036V5.13c0-1.851 1.482-3.357 3.303-3.357h2.321c1.821 0 3.303 1.506 3.303 3.357v4.044a3.05 3.05 0 01-.774 2.036l-1.587 1.776a.89.89 0 00-.39.738v2.865c0 .49.39.886.873.886h3.314c1.777 0 3.223 1.47 3.223 3.276v4.837H43.712a.879.879 0 00-.872.886c0 .49.39.886.872.886h13.416a.879.879 0 00.872-.886V20.75c0-2.784-2.228-5.048-4.967-5.048zM37.769 43.746a.876.876 0 00-.688-.6l-4.763-.795-2.216-4.358a.87.87 0 00-.774-.48.87.87 0 00-.775.48l-2.215 4.358-4.763.795a.876.876 0 00-.688.6.896.896 0 00.209.897l3.393 3.488-.728 4.85a.892.892 0 00.35.85.862.862 0 00.904.075l4.312-2.203 4.313 2.203a.86.86 0 00.904-.075.892.892 0 00.35-.85l-.729-4.85 3.394-3.488a.895.895 0 00.21-.897zm-5.151 3.456a.896.896 0 00-.242.756l.54 3.594-3.197-1.632a.86.86 0 00-.783 0l-3.196 1.632.54-3.594a.895.895 0 00-.242-.756l-2.516-2.585 3.53-.59a.874.874 0 00.634-.467l1.642-3.23 1.641 3.23a.874.874 0 00.634.468l3.53.589-2.515 2.585zm24.237-9.972a.876.876 0 00-.687-.6l-4.764-.794-2.215-4.358a.87.87 0 00-.775-.48.87.87 0 00-.774.48l-2.216 4.358-4.763.794a.876.876 0 00-.688.6c-.1.316-.02.662.21.898l3.393 3.488-.728 4.849a.892.892 0 00.35.85.86.86 0 00.903.075l4.313-2.202 4.313 2.202a.86.86 0 00.904-.075.892.892 0 00.35-.85l-.73-4.85 3.395-3.487a.895.895 0 00.21-.897zm-5.15 3.456a.896.896 0 00-.243.757l.54 3.593-3.196-1.632a.86.86 0 00-.783 0l-3.197 1.632.54-3.593a.896.896 0 00-.242-.757l-2.515-2.585 3.53-.588a.873.873 0 00.633-.468l1.642-3.23 1.642 3.23a.874.874 0 00.633.468l3.53.588-2.515 2.585zM18.682 37.23a.877.877 0 00-.688-.6l-4.763-.794-2.215-4.358a.87.87 0 00-.775-.48.87.87 0 00-.775.48l-2.215 4.358-4.763.794a.877.877 0 00-.688.6c-.1.316-.02.662.21.898l3.393 3.488-.728 4.849a.892.892 0 00.35.85.86.86 0 00.903.075l4.313-2.202 4.313 2.202a.86.86 0 00.904-.075.892.892 0 00.35-.85l-.73-4.85 3.395-3.487a.896.896 0 00.21-.897zm-5.15 3.456a.895.895 0 00-.243.757l.54 3.593-3.196-1.632a.859.859 0 00-.783 0l-3.197 1.632.54-3.593a.895.895 0 00-.242-.757l-2.515-2.585 3.53-.588a.874.874 0 00.634-.468l1.641-3.23 1.642 3.23a.874.874 0 00.634.468l3.53.588-2.516 2.585z" fill="#FF114D"/></svg>