<svg width="50" height="50" fill="none" xmlns="http://www.w3.org/2000/svg"><path d="M49.024 42.188h-6.836V39.72l.484.282a.976.976 0 001.47-.843v-7.428c.363-.21.673-.51.89-.884l.929-1.587 1.588-.929a2.454 2.454 0 001.207-2.102l.01-1.836.898-1.574a2.451 2.451 0 00.017-2.446l-.915-1.604-.009-1.676a2.462 2.462 0 00-1.208-2.263l-1.588-.928-.928-1.588a2.454 2.454 0 00-2.102-1.207l-.743-.004v-6.22c0-1.31-.514-2.542-1.447-3.468A4.812 4.812 0 0037.294 0H4.884A4.888 4.888 0 000 4.883v1.953c0 .54.437.976.977.976h6.835v37.305A4.888 4.888 0 0012.696 50h32.422a4.888 4.888 0 004.883-4.883v-1.953a.977.977 0 00-.977-.976zm-10.25-6.722a.976.976 0 00-.984 0l-3.414 1.993V32.06l1.094.006 1.574.898a2.442 2.442 0 002.446.017l1.604-.915 1.094-.006v5.4l-3.413-1.994zm4.572-22.165l1.058 1.809a.977.977 0 00.35.35l1.81 1.058a.492.492 0 01.243.467.966.966 0 00-.003.084l.01 1.967a.971.971 0 00.129.479l1.04 1.825a.493.493 0 01-.005.493l-.008.014-1.027 1.802a.976.976 0 00-.129.479l-.01 2.093a.495.495 0 01-.241.425l-1.809 1.058a.977.977 0 00-.35.35l-1.058 1.81a.495.495 0 01-.467.243.827.827 0 00-.083-.003l-1.968.01a.977.977 0 00-.479.128l-1.825 1.041a.494.494 0 01-.493-.005l-.014-.008-1.802-1.028a.976.976 0 00-.479-.128l-2.093-.01a.495.495 0 01-.425-.241l-1.058-1.81a.979.979 0 00-.35-.35L30 26.646a.492.492 0 01-.243-.467 1.15 1.15 0 00.003-.083l-.01-1.968a.978.978 0 00-.128-.479l-1.041-1.825a.494.494 0 01.005-.493l.008-.014 1.028-1.802a.976.976 0 00.128-.479l.01-2.093a.499.499 0 01.241-.425l1.81-1.058a.978.978 0 00.35-.35l1.057-1.81a.489.489 0 01.467-.243 1.1 1.1 0 00.084.003l1.967-.01a.977.977 0 00.479-.128l1.825-1.041a.493.493 0 01.493.005l.014.008 1.802 1.028c.146.083.31.127.479.128l2.093.011c.176 0 .34.093.425.24zM7.813 5.859H1.954v-.976c.162-3.888 5.7-3.885 5.86 0v.976zm7.813 39.258c-.162 3.888-5.7 3.885-5.86 0V4.883a4.857 4.857 0 00-.978-2.93H37.3a2.884 2.884 0 012.064.848c.561.557.87 1.296.87 2.082v5.725l-.715-.408a2.452 2.452 0 00-2.446-.017l-1.604.915-1.675.009a2.459 2.459 0 00-2.263 1.209l-.928 1.588-1.589.928a2.455 2.455 0 00-1.207 2.102l-.01 1.836-.897 1.574a2.45 2.45 0 00-.018 2.446l.915 1.604.009 1.676c-.055.915.415 1.8 1.209 2.263l1.588.928.928 1.588c.217.371.527.672.89.88v7.431a.976.976 0 001.47.844l4.39-2.563 1.953 1.14v3.607H16.602a.977.977 0 00-.976.976v1.953zm32.422 0a2.933 2.933 0 01-2.93 2.93H16.6a4.858 4.858 0 00.979-2.93v-.976h30.469v.976z" fill="#fff"/><path d="M33.398 21.582a4.888 4.888 0 004.883 4.883c6.478-.268 6.476-9.498 0-9.766a4.888 4.888 0 00-4.883 4.883zm7.813 0a2.933 2.933 0 01-2.93 2.93c-3.886-.161-3.885-5.7 0-5.86a2.933 2.933 0 012.93 2.93zM12.696 7.813h24.609c1.295-.052 1.294-1.902 0-1.953h-24.61c-1.295.051-1.294 1.902 0 1.953zm0 3.906h13.183c1.296-.052 1.295-1.902 0-1.953H12.696c-1.296.051-1.295 1.902 0 1.953zm0 3.906h11.62c1.297-.052 1.296-1.902 0-1.953h-11.62c-1.296.052-1.295 1.902 0 1.953zm-.001 3.906H22.95c1.295-.051 1.294-1.902 0-1.953H12.694c-1.295.052-1.294 1.902 0 1.953zm0 3.907H22.95c1.295-.052 1.294-1.902 0-1.954H12.694c-1.295.052-1.294 1.902 0 1.954zm0 3.906h11.622c1.296-.052 1.294-1.902 0-1.953H12.695c-1.295.051-1.294 1.902 0 1.953zm0 3.906H25.88c1.296-.052 1.295-1.902 0-1.953H12.695c-1.295.052-1.294 1.902 0 1.953zm0 3.906H28.32c1.296-.051 1.295-1.902 0-1.953H12.695c-1.295.052-1.294 1.902 0 1.953zm16.602 2.93a.977.977 0 00-.977-.977H12.695c-1.295.052-1.294 1.902 0 1.953H28.32c.54 0 .977-.437.977-.976z" fill="#fff"/></svg>