<svg width="42" height="42" fill="none" xmlns="http://www.w3.org/2000/svg"><path d="M17.046 27.677a3.87 3.87 0 00-3.866 3.867 3.87 3.87 0 003.866 3.866 3.87 3.87 0 003.867-3.866 3.87 3.87 0 00-3.867-3.867zm0 5.272a1.406 1.406 0 010-2.811 1.406 1.406 0 010 2.811z" fill="#fff"/><path d="M31.544 0H10.456C4.691 0 0 4.69 0 10.456v21.088C0 37.309 4.69 42 10.456 42h21.088C37.309 42 42 37.31 42 31.544V10.456C42 4.691 37.31 0 31.544 0zm0 39.54H10.456c-4.408 0-7.995-3.588-7.995-7.996V10.456c0-1.761.573-3.39 1.541-4.713l3.521 3.52a1.23 1.23 0 00.297 2.424c1.16 0 2.174.782 2.466 1.897l2.93 11.668c.137.548.63.932 1.194.932h10.034l1.754 1.754a3.872 3.872 0 00-2.475 3.606 3.87 3.87 0 003.867 3.866 3.872 3.872 0 003.606-2.474l5.061 5.061a7.951 7.951 0 01-4.713 1.542zm-9.56-15.817H15.37l-2.02-8.082h.55l8.082 8.082zm-4.603-8.082h13.905l-2.02 8.082h-3.802l-8.083-8.082zm11.614 15.903a1.406 1.406 0 01-2.811 0 1.406 1.406 0 012.811 0zm10.544 0a7.952 7.952 0 01-1.541 4.713L27.925 26.184h2.3a1.23 1.23 0 001.194-.932l2.636-10.543a1.23 1.23 0 00-1.193-1.53H14.92L5.743 4.003a7.952 7.952 0 014.713-1.541h21.088c4.408 0 7.995 3.587 7.995 7.995v21.088z" fill="#fff"/></svg>