<svg width="50" height="50" fill="none" xmlns="http://www.w3.org/2000/svg"><path d="M47.368 3.935h-8.552V.993A.99.99 0 0037.829 0a.99.99 0 00-.987.993v2.943H13.15V.993A.99.99 0 0012.163 0a.99.99 0 00-.987.993v2.943H2.632C1.184 3.936 0 5.13 0 6.586v40.118c0 1.457 1.184 2.65 2.632 2.65h44.736c1.447 0 2.632-1.194 2.632-2.65V6.585c0-1.457-1.185-2.65-2.632-2.65zm.658 42.769a.67.67 0 01-.658.662H2.632a.669.669 0 01-.658-.662v-30.9h46.052v30.9zm0-32.886H1.974V6.585c0-.359.3-.662.658-.662h8.544v3.683a.99.99 0 00.987.993.99.99 0 00.987-.993V5.923h23.692v3.683a.99.99 0 00.987.993.99.99 0 00.987-.993V5.923h8.552a.67.67 0 01.658.662v7.233z" fill="#fff"/><path d="M22.71 22.366h-4.604a.99.99 0 00-.986.994.99.99 0 00.986.994h4.604a.99.99 0 00.987-.994.99.99 0 00-.987-.994zm9.211 0h-4.605a.99.99 0 00-.987.994.99.99 0 00.987.994h4.605a.99.99 0 00.987-.994.99.99 0 00-.987-.994zm9.21 0h-4.605a.99.99 0 00-.987.994.99.99 0 00.987.994h4.605a.99.99 0 00.987-.994.99.99 0 00-.987-.994zM22.71 28.287h-4.604a.99.99 0 00-.986.994.99.99 0 00.986.994h4.604a.99.99 0 00.987-.994.99.99 0 00-.987-.994zm9.211 0h-4.605a.99.99 0 00-.987.994.99.99 0 00.987.994h4.605a.99.99 0 00.987-.994.99.99 0 00-.987-.994zm9.21 0h-4.605a.99.99 0 00-.987.994.99.99 0 00.987.994h4.605a.99.99 0 00.987-.994.99.99 0 00-.987-.994zm-28.288 0H8.238a.99.99 0 00-.987.994.99.99 0 00.987.994h4.605a.992.992 0 00.987-.994.991.991 0 00-.987-.994zm9.867 5.921h-4.604a.99.99 0 00-.986.994.99.99 0 00.986.994h4.604a.99.99 0 00.987-.994.99.99 0 00-.987-.994zm9.211 0h-4.605a.99.99 0 00-.987.994.99.99 0 00.987.994h4.605a.99.99 0 00.987-.994.99.99 0 00-.987-.994zm9.21 0h-4.605a.99.99 0 00-.987.994.99.99 0 00.987.994h4.605a.99.99 0 00.987-.994.99.99 0 00-.987-.994zm-28.288 0H8.238a.99.99 0 00-.987.994.99.99 0 00.987.994h4.605a.992.992 0 00.987-.994.99.99 0 00-.987-.994zm0 5.922H8.238a.99.99 0 00-.987.993.99.99 0 00.987.994h4.605a.992.992 0 00.987-.994.99.99 0 00-.987-.993zm9.21 0h-4.604a.99.99 0 00-.987.993.99.99 0 00.987.994h4.604a.99.99 0 00.986-.994.99.99 0 00-.986-.993zm9.21 0h-4.605a.99.99 0 00-.987.993.99.99 0 00.987.994h4.605a.99.99 0 00.987-.994.99.99 0 00-.987-.993z" fill="#fff"/></svg>