<svg width="59" height="59" fill="none" xmlns="http://www.w3.org/2000/svg"><path d="M54.578 30.953a1.996 1.996 0 00-1.957-1.623h-1.927l-.141-.851a2.007 2.007 0 00-1.667-1.657c-.19-.03-.38-.05-.57-.076a6.113 6.113 0 00-.757-4.459 4.101 4.101 0 00-.22-3.42 4.082 4.082 0 00-2.738-2.054 8.493 8.493 0 00-8.291-6.946c-.1 0-.189.013-.284.016a4.05 4.05 0 00-6.207-.774A6.834 6.834 0 0026.095 8c-2.13.009-4.139 1-5.444 2.688a4.958 4.958 0 00-4.248.707 4.984 4.984 0 00-2.102 3.769 4.116 4.116 0 00-2.514 3.792c.003.287.036.573.1.853a8.065 8.065 0 00-.957 6.9c-.267.037-.54.07-.798.108a2.01 2.01 0 00-1.68 1.656l-.141.854H6.38c-.955 0-1.775.68-1.957 1.619L.055 53.428c-.17.88.06 1.791.63 2.483A2.99 2.99 0 002.998 57h20.8c.827 1.366 3.336 2 5.702 2 2.341 0 4.827-.619 5.676-2h20.826a2.99 2.99 0 002.312-1.089c.57-.691.801-1.602.631-2.482l-4.367-22.476zM14.803 20.766a2.114 2.114 0 011.077-3.922 2.067 2.067 0 011.675.848.996.996 0 001.716-.199 1.002 1.002 0 00-.114-.993 4.027 4.027 0 00-2.829-1.6 3.034 3.034 0 012.957-2.407c.122.006.243.02.363.04-.08.205-.15.414-.209.626a.997.997 0 001.931.5c.113-.44.288-.86.518-1.252A4.923 4.923 0 0126.095 10c.94.004 1.857.282 2.642.8a4.04 4.04 0 00-.234 1.311c0 .552.446 1 .997 1a.998.998 0 00.997-1 2.1 2.1 0 012.099-2.104 2.1 2.1 0 012.098 2.104.998.998 0 101.995 0c0-.077-.02-.15-.023-.227a6.48 6.48 0 015.906 5.006 4.044 4.044 0 00-1.29.645 1.001 1.001 0 00.206 1.72c.328.14.706.094.99-.12a2.098 2.098 0 012.643.113c.743.658.928 1.747.442 2.614a2.13 2.13 0 01-.945.876 1 1 0 00.425 1.9c.146 0 .29-.032.423-.095.264-.128.514-.285.745-.467a4.28 4.28 0 01-.844 4.265l-.024.025a4.3 4.3 0 01-5.087.936 3.964 3.964 0 01-.482-.302 3.413 3.413 0 00.263-3.52.998.998 0 10-1.782.9c.328.66.123 1.463-.481 1.885a1.502 1.502 0 01-2.167-.554.998.998 0 10-1.784.895 3.457 3.457 0 003.108 1.928 3.413 3.413 0 001.252-.247c.356.313.748.581 1.169.8a6.13 6.13 0 004.607.427 6.356 6.356 0 01-4.108 2.525 1 1 0 00.316 1.975 8.18 8.18 0 001.77-.518c.306.545.556 1.12.743 1.717a1.079 1.079 0 01-.602 1.315c-.46.178-.98.038-1.288-.347a6.365 6.365 0 00-2.92-1.945c-2.155-.724-2.987-1.371-3.34-2.075a9.552 9.552 0 001.53-.32 1 1 0 00.385-1.689.996.996 0 00-.972-.223 7.54 7.54 0 01-1.722.317 7.385 7.385 0 01-3.305-.5.996.996 0 00-1.119.279 4.263 4.263 0 01-5.728.655 4.289 4.289 0 01-1.16-5.662 1.005 1.005 0 00-.842-1.518 1 1 0 00-.874.487c-.238.406-.43.838-.57 1.287a1.498 1.498 0 01-1.418-1.474v-.025a.99.99 0 00-.998-.987 1.009 1.009 0 00-.997 1.012 3.477 3.477 0 003.097 3.451c.004.335.034.67.09 1a6.086 6.086 0 01-5.987-2.08 6.124 6.124 0 01-.909-6.289c.224.226.473.425.743.593a.996.996 0 001.358-.347 1.001 1.001 0 00-.33-1.366v.004zm-4.389 8.033c.46-.068.935-.128 1.407-.19a8.044 8.044 0 008.747 3.558 6.237 6.237 0 009.787 1.663c.678.203 1.376.33 2.082.378.481 1.832 1.874 2.942 4.8 3.925a4.42 4.42 0 012.03 1.341 3.174 3.174 0 002.41 1.135c.407 0 .81-.082 1.184-.242a3.08 3.08 0 001.712-3.777 10.95 10.95 0 00-.881-2.035 8.431 8.431 0 003.314-5.082 6.27 6.27 0 00.575-.806c.334.043.668.081 1.004.137l3.6 21.714a34.155 34.155 0 00-21.688 0V38c0-.552-.446-1-.997-1a.999.999 0 00-.997 1v12.522a34.16 34.16 0 00-21.688-.008l3.6-21.715zM2.221 54.632a.994.994 0 01-.21-.82L6.38 31.33h1.596l-3.13 18.859a2.01 2.01 0 00.666 1.836 1.998 1.998 0 001.908.398 33.287 33.287 0 0116.474-1.048L23.598 55h-20.6c-.3 0-.586-.135-.777-.368zM29.501 57c-2.404 0-3.782-.712-3.985-1.029l.344-4.15c1.096.274 2.17.635 3.21 1.079a.989.989 0 00.863 0 21.206 21.206 0 013.208-1.086l.343 4.156C33.28 56.288 31.903 57 29.5 57zm27.278-2.368a1.003 1.003 0 01-.777.368H35.406l-.3-3.632a33.296 33.296 0 0116.482 1.057 1.997 1.997 0 001.904-.404c.523-.456.773-1.15.662-1.835l-3.127-18.855h1.596l4.368 22.48a.994.994 0 01-.212.821z" fill="#fff"/><path d="M26.195 22.685a1.002 1.002 0 00-.071 1.412 6.01 6.01 0 003.197 1.848 2.97 2.97 0 01-2.428 1.255.999.999 0 00-.998 1 1 1 0 00.998 1 4.947 4.947 0 004.647-3.207 6.027 6.027 0 004.924-4.8 1.002 1.002 0 00-.32-.959.996.996 0 00-1.639.583 3.987 3.987 0 01-1.652 2.539 4.064 4.064 0 01-5.25-.6.996.996 0 00-1.408-.071zM22.718 21.6a1 1 0 00.997-1c0-.69.273-1.35.76-1.838A2.59 2.59 0 0126.308 18a1 1 0 000-2 4.6 4.6 0 00-4.588 4.6 1.001 1.001 0 00.998 1zM30.497 2V1c0-.552-.446-1-.997-1a.999.999 0 00-.997 1v1c0 .552.446 1 .997 1a1 1 0 00.997-1zm15.371 5.176l-.998 1a1.002 1.002 0 00.44 1.687.996.996 0 00.97-.273l.998-1a1.002 1.002 0 00-.44-1.687.996.996 0 00-.97.273zM13.425 9.883a1.002 1.002 0 00.705-1.707l-.998-1a.996.996 0 00-1.682.441c-.091.35.013.722.272.973l.997 1a.995.995 0 00.706.293zm7.678-4.208a.999.999 0 00.922-1.383L20.877 1.52a.998.998 0 10-1.842.766l1.145 2.772a.997.997 0 00.922.617zM39.425.979a.997.997 0 00-1.303.541l-1.146 2.772a1.003 1.003 0 00.54 1.308.997.997 0 001.304-.541l1.144-2.772a1.002 1.002 0 00-.54-1.308zm10.348 16.603a.994.994 0 00.382-.077l2.764-1.148a1 1 0 00-.763-1.848l-2.765 1.148a1 1 0 00.382 1.925zm-40.928-.077a.997.997 0 001.304-.541 1.001 1.001 0 00-.54-1.307l-2.765-1.148a.997.997 0 00-1.303.541 1 1 0 00.54 1.307l2.764 1.148z" fill="#fff"/></svg>