<svg width="50" height="50" fill="none" xmlns="http://www.w3.org/2000/svg"><path d="M21.875 0H7.292A7.299 7.299 0 000 7.292v35.416A7.299 7.299 0 007.292 50h2.083a1.042 1.042 0 000-2.083H7.292a5.216 5.216 0 01-5.209-5.209V7.292a5.216 5.216 0 015.209-5.209h14.583a5.216 5.216 0 015.208 5.209v10.416a1.042 1.042 0 002.084 0V7.292A7.3 7.3 0 0021.875 0z" fill="#fff"/><path d="M28.125 8.333H1.042a1.042 1.042 0 000 2.084h27.083a1.042 1.042 0 000-2.084zM18.75 37.5H1.042a1.042 1.042 0 000 2.083H18.75a1.042 1.042 0 000-2.083zM17.708 4.167h-6.25a1.042 1.042 0 000 2.083h6.25a1.042 1.042 0 000-2.083zm4.209 0h-.021c-.575 0-1.031.466-1.031 1.041s.477 1.042 1.052 1.042a1.042 1.042 0 000-2.083z" fill="#fff"/><path d="M47.02 27.573l-7.833-8.608A3.988 3.988 0 0032.54 20.7a3.992 3.992 0 00-6.252 2.081 3.987 3.987 0 00-5.24.363 3.956 3.956 0 00-1 1.681l-3.692-3.692a3.988 3.988 0 00-5.64.013 3.982 3.982 0 000 5.627L24.9 40.956l-8.412 1.321a4.667 4.667 0 00-3.988 4.598A3.129 3.129 0 0015.625 50h19.644c3.06 0 5.937-1.192 8.102-3.356l3.277-3.277A11.363 11.363 0 0050 35.275a11.42 11.42 0 00-2.98-7.702zm-1.845 14.32l-3.277 3.278a9.313 9.313 0 01-6.63 2.746H15.626a1.042 1.042 0 01-1.042-1.042c0-1.267.946-2.356 2.213-2.54l10.448-1.641a1.043 1.043 0 00.575-1.765L12.188 25.298c-.74-.74-.74-1.942.012-2.694a1.898 1.898 0 012.683.002L25.306 33.03a1.043 1.043 0 001.473-1.473L22.523 27.3c-.74-.74-.74-1.942.012-2.694a1.901 1.901 0 012.682 0l4.256 4.256a1.043 1.043 0 001.481-1.464l-2.173-2.173a1.9 1.9 0 01.013-2.694 1.901 1.901 0 012.681 0l2.173 2.173.002.002.002.002.002.002.002.002h.002c.002 0 .002.003.002.003a1.042 1.042 0 001.453-1.494l-.09-.09a1.887 1.887 0 01-.556-1.341c0-.507.196-.982.566-1.353.74-.737 1.942-.735 2.648-.035l7.8 8.573a9.353 9.353 0 012.436 6.3c0 2.5-.973 4.85-2.742 6.619z" fill="#fff"/></svg>