<svg width="60" height="49" fill="none" xmlns="http://www.w3.org/2000/svg"><path d="M55.492 25.845c-.662 0-1.273.16-1.816.403a4.508 4.508 0 00-3.547-1.729 4.51 4.51 0 00-2.02.492l-.062.034-1.842 1.086a4.5 4.5 0 00-3.45-1.612c-.746 0-1.432.197-2.021.492l-.074.041-7.053 4.295a498.458 498.458 0 00-5.07-1.463 185.05 185.05 0 00-4.926-1.33 43.915 43.915 0 00-1.802-.42 13.73 13.73 0 00-.667-.122c-.2-.029-.366-.05-.553-.05-.145 0-.27.013-.413.03-.52.069-1.258.226-2.13.429-1.78.416-4.053 1.021-5.309 1.361V25.67c0-1.466-1.207-2.666-2.681-2.666H2.682C1.207 23.004 0 24.204 0 25.67v20.665C0 47.8 1.207 49 2.682 49h7.374c1.475 0 2.681-1.2 2.681-2.666v-1.605c1.592.345 5.124 1.103 8.848 1.864a343.71 343.71 0 007.272 1.416 85.42 85.42 0 002.825.47c.794.115 1.386.186 1.837.188a3.934 3.934 0 001.043-.166c.669-.187 1.43-.505 2.3-.926 3.031-1.469 7.384-4.221 11.49-6.945 4.099-2.72 7.933-5.407 9.811-6.693C59.34 33.131 60 31.769 60 30.328c-.002-2.475-2.018-4.482-4.508-4.483zM10.726 46.333a.678.678 0 01-.67.667H2.682a.677.677 0 01-.67-.667V25.67c0-.361.306-.666.67-.666h7.374c.363 0 .67.305.67.666v20.664zM57.023 32.29c-2.31 1.582-7.48 5.212-12.483 8.443-2.5 1.615-4.959 3.129-6.974 4.226-1.007.548-1.906.992-2.624 1.288-.358.148-.672.26-.92.328-.248.07-.435.094-.502.092-.22.002-.8-.055-1.546-.166-2.641-.384-7.585-1.366-11.843-2.25a853.2 853.2 0 01-5.522-1.165c-.83-.178-1.472-.318-1.871-.404V29.856l.763-.207c1.06-.286 2.677-.715 4.128-1.07.725-.178 1.41-.337 1.953-.45.27-.055.507-.1.689-.129.178-.03.317-.04.318-.038.004 0 .109.006.252.028.556.083 1.693.348 3.079.708 4.176 1.085 10.76 3.045 13.42 3.848.92.276 1.754.692 2.3 1.197.276.252.482.521.621.813.139.292.217.609.219.996a2.81 2.81 0 01-.834 2.001 2.844 2.844 0 01-1.99.827l-2.594-.252-8.857-1.13a1.006 1.006 0 00-1.126.864 1.001 1.001 0 00.87 1.119l8.884 1.134 2.75.267h.05c2.682 0 4.856-2.162 4.857-4.83a4.268 4.268 0 00-.412-1.855c-.4-.832-1.04-1.477-1.766-1.968-.728-.491-1.55-.842-2.387-1.095-.466-.141-1.054-.318-1.726-.519l5.458-3.324a2.483 2.483 0 011.1-.272c.65-.001 1.237.25 1.68.655l-2.696 1.59a.996.996 0 00-.351 1.37c.284.474.9.632 1.378.35l6.259-3.691a2.47 2.47 0 011.105-.274c.694 0 1.318.287 1.77.743l-7.287 4.297a.996.996 0 00-.352 1.37c.284.475.9.632 1.379.35l7.88-4.648a.994.994 0 00.229-.063.995.995 0 00.394-.304l.246-.145a2.47 2.47 0 011.105-.274 2.494 2.494 0 012.495 2.483c-.003.838-.389 1.57-.968 1.962zM36.337 11.384c-.882-.644-1.905-.998-2.921-1.284-.138-.039-.273-.07-.411-.106V3.89c.98.146 1.706.45 2.188.826.342.264.577.56.739.892.159.333.244.708.245 1.139 0 .552.45 1 1.005 1 .555 0 1.006-.448 1.006-1 0-.698-.144-1.382-.441-2-.445-.933-1.238-1.697-2.268-2.195-.713-.345-1.544-.564-2.474-.673V1c0-.552-.45-.999-1.006-.999-.555 0-1.005.447-1.005 1v.824a7.05 7.05 0 00-1.962.417c-1.139.428-1.972 1.159-2.488 1.98a4.755 4.755 0 00-.734 2.526c-.002.855.205 1.625.595 2.252a4.2 4.2 0 001.3 1.303c.88.573 1.888.88 2.891 1.147.132.034.265.068.397.1v6.566c-.978-.107-1.728-.42-2.232-.844-.617-.528-.933-1.201-.94-2.06 0-.552-.45-1-1.006-1-.555 0-1.005.448-1.005 1a4.607 4.607 0 001.652 3.586c.91.765 2.123 1.224 3.531 1.337v.869c0 .552.45 1 1.006 1 .555 0 1.005-.448 1.005-1v-.905c1.139-.114 2.202-.393 3.11-.953a4.27 4.27 0 001.523-1.592c.366-.672.551-1.467.55-2.342.001-.912-.196-1.721-.57-2.396a4.441 4.441 0 00-1.28-1.431zm-5.345-1.902c-.978-.26-1.822-.566-2.338-.959a1.995 1.995 0 01-.607-.695c-.136-.27-.225-.604-.226-1.082 0-.614.226-1.35.781-1.91a3.13 3.13 0 011.144-.726c.344-.13.76-.226 1.246-.276v5.648zm4.875 7.12c-.142.26-.325.474-.563.666-.357.285-.852.515-1.468.668a7.199 7.199 0 01-.832.148v-6.019c.615.177 1.178.372 1.634.616.509.267.876.572 1.125.946.247.377.41.85.413 1.584-.002.605-.122 1.045-.309 1.391z" fill="#fff"/></svg>