<svg width="58" height="58" fill="none" xmlns="http://www.w3.org/2000/svg"><path d="M57.903 26.823a.93.93 0 00.057-.283.968.968 0 00-.048-.301l-.075-.211A28.976 28.976 0 0047.3 6.525c-.426-.347-.87-.66-1.316-.982-.022-.019-.034-.045-.058-.062-.024-.018-.043-.016-.064-.029A29.07 29.07 0 0028.97.002c-.25 0-.5 0-.687.019a28.335 28.335 0 00-9.456 1.82A8.693 8.693 0 009.654.886a8.707 8.707 0 00-4.878 7.833 9.206 9.206 0 00.76 3.211 29.12 29.12 0 00-2.598 4.285c-.015.024-.023.049-.036.073C-3.958 30.485 1.75 47.57 15.765 54.78c14.015 7.21 31.218 1.915 38.761-11.933a28.626 28.626 0 003.433-12.369c.03-.467.041-.943.041-1.42 0-.75-.039-1.494-.097-2.235zm-2.812-4.97c-.123-.11-.236-.237-.365-.337a12.748 12.748 0 00-4.225-2.112 9.088 9.088 0 00-4.243-.045 8.359 8.359 0 01-3.615.018c-2.313-.505-4.141-.904-5.11-2.454-1.39-2.228-.738-5.359.727-6.46a2.206 2.206 0 011.656-.355 6.182 6.182 0 003-.505 7.776 7.776 0 002.613-1.992c.182.142.376.269.555.415a27.084 27.084 0 019.007 13.826zM13.486 1.937a6.788 6.788 0 016.774 6.78c0 2.898-4.348 9.53-6.774 12.893a60.878 60.878 0 01-5.97-9.929 8.078 8.078 0 01-.804-2.964 6.785 6.785 0 016.774-6.78zM1.873 29.058c.004-1.805.186-3.605.543-5.374.104 1.346.279 2.544.436 3.583.6 3.971 1.166 7.715 4.09 11.139 1.223 1.442 3.271 3.853 6.437 4.21 3.167.357 7.132-1.467 8.277-2.034l.44-.222a4.254 4.254 0 012.021-.648 4.772 4.772 0 013.166 1.619c1.652 1.83 2.071 4.884.897 6.537a2.966 2.966 0 01-1.486 1.034 4.521 4.521 0 00-2.427 1.937 5.986 5.986 0 00-.418 4.843C11.104 53.211 1.893 42.052 1.873 29.058zm27.096 27.12c-.935 0-1.87-.048-2.8-.145a3.421 3.421 0 01-.22-.317 4.125 4.125 0 01-.019-3.886 2.67 2.67 0 011.52-1.144 4.821 4.821 0 002.308-1.696c1.683-2.369 1.206-6.473-1.036-8.955a6.643 6.643 0 00-4.584-2.26h-.043a5.86 5.86 0 00-2.882.86l-.413.208c-2.115 1.044-5.123 2.075-7.206 1.84-2.403-.269-4.072-2.237-5.179-3.54-2.566-3.003-3.069-6.325-3.649-10.17a27.873 27.873 0 01-.074-9.962 27.163 27.163 0 011.754-3.041c.032.064.067.13.097.194a197.633 197.633 0 01.484.918 37.487 37.487 0 00.513.925l.21.366a103.113 103.113 0 00.539.909c.114.193.23.374.345.561.066.106.13.213.193.318.143.23.286.452.428.678.038.058.075.12.112.176.177.275.353.543.526.805l.193.29c.107.16.213.32.317.473l.23.337c.082.122.167.245.248.363l.232.333a29.66 29.66 0 00.43.612l.177.25.193.267.158.219.154.212.126.17.118.161.07.097.17.23a.966.966 0 001.549 0c.812-1.078 7.937-10.639 7.937-15.116 0-.282-.018-.563-.044-.842-.009-.086-.023-.173-.034-.259a7.036 7.036 0 00-.096-.58 8.804 8.804 0 00-.216-.862c-.024-.079-.044-.157-.07-.233a8.663 8.663 0 00-.296-.766 1.657 1.657 0 00-.069-.14 9.329 9.329 0 00-.304-.597c-.049-.087-.102-.17-.154-.256a11.19 11.19 0 00-.29-.452 9.195 9.195 0 00-.184-.256c-.033-.043-.061-.088-.097-.13a26.405 26.405 0 016.219-1.29c-1.51 2.85-2.002 5.487-1.439 7.845a10.101 10.101 0 002.323 4.238c.91 1.128 1.566 1.941 1.525 3.27-.083 2.808-3.252 5.146-4.452 6.03a16.657 16.657 0 01-5.196 2.512c-1.758.575-3.274 1.07-3.854 2.802a5.524 5.524 0 002.344 5.972 4.884 4.884 0 003.856.341 11.89 11.89 0 014.27-.204c1.839.26 3.424.484 4.176 1.538.446.63.423 1.28.336 2.474a11.745 11.745 0 00.502 5.02c.441 1.325 1.108 3.325 2.71 3.556.103.017.209.025.314.025 1.133 0 1.827-1.001 2.556-2.055.323-.466.678-.968 1.104-1.473 1.991 3.22 4.015 5.908 4.109 6.036a.967.967 0 001.548 0 80.54 80.54 0 005.728-8.827c1.189.344 2.32.86 3.36 1.533a27.047 27.047 0 01-23.411 13.49zM47.03 29.82a6.766 6.766 0 012.26 5.05c0 .696-.283 2.077-1.625 4.7a72.201 72.201 0 01-5.15 8.188c-.91-1.27-2.477-3.524-3.879-5.893a35.822 35.822 0 01-2.09-4.032 8.078 8.078 0 01-.804-2.964 6.785 6.785 0 017.397-6.751 6.711 6.711 0 013.891 1.702zm9 .558a26.702 26.702 0 01-2.725 10.601 14.711 14.711 0 00-3.399-1.585 11.482 11.482 0 001.32-4.525 8.755 8.755 0 00-4.875-7.828l-.061-.026a9.362 9.362 0 00-.66-.29c-.155-.06-.315-.108-.472-.158-.097-.03-.184-.066-.278-.097a8.505 8.505 0 00-.759-.176h-.012c-.155-.029-.312-.045-.469-.065a8.643 8.643 0 00-6.89 2.07 8.659 8.659 0 00-2.944 6.57 9.98 9.98 0 00.959 3.723 35.712 35.712 0 001.833 3.607 17.839 17.839 0 00-1.657 2.116 5.043 5.043 0 01-.996 1.22c-.194-.03-.552-.443-1.161-2.255a9.945 9.945 0 01-.408-4.268 5.184 5.184 0 00-.69-3.738c-1.236-1.73-3.393-2.034-5.492-2.332a13.621 13.621 0 00-4.895.22c-1.238.237-1.813.325-2.47-.084a3.672 3.672 0 01-1.529-3.713c.259-.775 1.033-1.055 2.613-1.574a18.568 18.568 0 005.75-2.796c1.41-1.035 5.128-3.782 5.24-7.53.062-2.05-.963-3.316-1.953-4.539a8.379 8.379 0 01-1.944-3.463c-.514-2.158.123-4.688 1.85-7.525h.112A27.143 27.143 0 0143.944 6.47a5.815 5.815 0 01-1.826 1.366 4.33 4.33 0 01-2.144.336 4.056 4.056 0 00-2.877.74c-2.194 1.654-3.177 5.87-1.205 9.036 1.404 2.244 3.802 2.767 6.42 3.338 1.41.298 2.867.292 4.274-.018a7.292 7.292 0 013.434.01 10.78 10.78 0 013.513 1.76 7.932 7.932 0 012.403 3.435c.08.856.129 1.713.129 2.585 0 .433-.009.872-.038 1.32h.004z" fill="#fff"/><path d="M13.486 11.624a3.872 3.872 0 003.87-3.874 3.873 3.873 0 00-3.87-3.874A3.873 3.873 0 009.615 7.75a3.872 3.872 0 003.87 3.874zm0-5.811a1.936 1.936 0 11-.002 3.872 1.936 1.936 0 01.002-3.872zM38.646 33.9a3.872 3.872 0 003.87 3.875 3.872 3.872 0 003.872-3.874 3.873 3.873 0 00-3.871-3.875 3.873 3.873 0 00-3.871 3.875zm5.806 0a1.936 1.936 0 11-3.872.002 1.936 1.936 0 013.872-.001z" fill="#fff"/></svg>