<svg width="45" height="54" fill="none" xmlns="http://www.w3.org/2000/svg"><path d="M5.357 21.727c-.591 0-1.071.472-1.071 1.054 0 .582.48 1.055 1.071 1.055.592 0 1.072-.473 1.072-1.055s-.48-1.054-1.072-1.054z" fill="#fff"/><path d="M43.929 9.07c-11.676 0-17.95-6.141-20.012-8.16-.42-.41-.63-.616-.853-.752a1.086 1.086 0 00-1.128 0c-.153.093-.276.212-.573.497-.764.734-2.551 2.454-5.315 4.155C11.455 7.637 6.416 9.07 1.07 9.07.48 9.07 0 9.543 0 10.125v13.836c0 6.643 2.129 12.97 6.156 18.3 4.368 5.776 10.063 9.93 16.036 11.694a1.09 1.09 0 00.616 0c5.973-1.764 11.668-5.917 16.036-11.695C42.87 36.932 45 30.604 45 23.961V10.125c0-.582-.48-1.055-1.071-1.055zm-1.072 14.891c0 6.186-1.982 12.078-5.732 17.04-4.019 5.315-9.201 9.155-14.625 10.84-5.424-1.685-10.606-5.525-14.625-10.84-3.75-4.962-5.732-10.854-5.732-17.04v-12.8c5.354-.18 10.41-1.712 15.04-4.562a32.284 32.284 0 005.322-4.095c2.247 2.197 8.656 8.304 20.352 8.66V23.96z" fill="#fff"/><path d="M39.76 13.067c-5.896-.643-11.491-2.992-16.628-6.982a1.085 1.085 0 00-1.315-.01c-5.089 3.834-10.98 6.31-16.587 6.97a1.06 1.06 0 00-.944 1.048v4.47c0 .582.48 1.054 1.071 1.054.592 0 1.072-.472 1.072-1.054v-3.55c4.076-.61 9.864-2.31 16.03-6.775 4.999 3.73 10.412 6.016 16.112 6.807v8.917c0 5.27-1.69 10.291-4.886 14.519-3.061 4.053-6.922 7.016-11.185 8.589-4.263-1.573-8.123-4.535-11.184-8.587-2.58-3.412-4.21-7.427-4.714-11.611a1.067 1.067 0 00-1.19-.923 1.058 1.058 0 00-.938 1.171c.549 4.55 2.32 8.915 5.122 12.622 3.402 4.502 7.74 7.768 12.546 9.444a1.089 1.089 0 00.716 0c4.807-1.676 9.145-4.943 12.546-9.446 3.474-4.594 5.31-10.05 5.31-15.778v-9.847c0-.537-.41-.989-.953-1.048z" fill="#fff"/><path d="M33.136 23.12a1.067 1.067 0 00-.865-.718l-6.117-.875-2.735-5.456a1.073 1.073 0 00-.96-.588c-.409 0-.781.228-.961.588l-2.736 5.456-6.118.875a1.067 1.067 0 00-.865.718c-.126.382-.02.8.272 1.081l4.426 4.247-1.045 5.998c-.069.396.097.796.427 1.032a1.082 1.082 0 001.128.08l5.471-2.832 5.47 2.832c.362.187.799.156 1.129-.08.33-.236.495-.636.426-1.032l-1.044-5.998 4.426-4.247c.292-.28.397-.7.271-1.081zm-6.597 4.205a1.044 1.044 0 00-.308.933l.773 4.438-4.047-2.095a1.087 1.087 0 00-.998 0l-4.048 2.095.773-4.437a1.044 1.044 0 00-.308-.934l-3.275-3.142 4.526-.648c.35-.05.65-.265.807-.577l2.024-4.037 2.023 4.037c.156.312.458.527.807.577l4.526.648-3.275 3.142z" fill="#fff"/></svg>