<svg width="50" height="50" fill="none" xmlns="http://www.w3.org/2000/svg"><path d="M48.958 47.917H1.042a1.042 1.042 0 000 2.083h47.916a1.042 1.042 0 000-2.083z" fill="#fff"/><path d="M9.375 35.417h-6.25c-.575 0-1.042.466-1.042 1.041v12.5c0 .575.467 1.042 1.042 1.042h6.25c.575 0 1.042-.467 1.042-1.042v-12.5c0-.575-.467-1.041-1.042-1.041zm-1.042 12.5H4.167V37.5h4.166v10.417zM21.875 25h-6.25c-.575 0-1.042.467-1.042 1.042v22.916c0 .575.467 1.042 1.042 1.042h6.25c.575 0 1.042-.467 1.042-1.042V26.042c0-.575-.467-1.042-1.042-1.042zm-1.042 22.917h-4.166V27.083h4.166v20.834zm13.542-18.75h-6.25c-.575 0-1.042.466-1.042 1.041v18.75c0 .575.467 1.042 1.042 1.042h6.25c.575 0 1.042-.467 1.042-1.042v-18.75c0-.575-.467-1.041-1.042-1.041zm-1.042 18.75h-4.166V31.25h4.166v16.667zm13.542-31.25h-6.25c-.575 0-1.042.466-1.042 1.041v31.25c0 .575.467 1.042 1.042 1.042h6.25c.575 0 1.042-.467 1.042-1.042v-31.25c0-.575-.467-1.041-1.042-1.041zm-1.042 31.25h-4.166V18.75h4.166v29.167zM6.25 18.75a4.17 4.17 0 00-4.167 4.167 4.17 4.17 0 004.167 4.166 4.17 4.17 0 004.167-4.166A4.17 4.17 0 006.25 18.75zm0 6.25a2.085 2.085 0 01-2.083-2.083c0-1.148.933-2.084 2.083-2.084 1.15 0 2.083.936 2.083 2.084A2.085 2.085 0 016.25 25zm12.5-16.667a4.17 4.17 0 00-4.167 4.167 4.17 4.17 0 004.167 4.167 4.17 4.17 0 004.167-4.167 4.17 4.17 0 00-4.167-4.167zm0 6.25a2.085 2.085 0 01-2.083-2.083c0-1.148.933-2.083 2.083-2.083 1.15 0 2.083.935 2.083 2.083a2.085 2.085 0 01-2.083 2.083zm12.5-2.083a4.17 4.17 0 00-4.167 4.167 4.17 4.17 0 004.167 4.166 4.17 4.17 0 004.167-4.166A4.17 4.17 0 0031.25 12.5zm0 6.25a2.085 2.085 0 01-2.083-2.083c0-1.148.933-2.084 2.083-2.084 1.15 0 2.083.936 2.083 2.084a2.085 2.085 0 01-2.083 2.083zM43.75 0a4.17 4.17 0 00-4.167 4.167 4.17 4.17 0 004.167 4.166 4.17 4.17 0 004.167-4.166A4.17 4.17 0 0043.75 0zm0 6.25a2.085 2.085 0 01-2.083-2.083c0-1.148.933-2.084 2.083-2.084 1.15 0 2.083.936 2.083 2.084A2.085 2.085 0 0143.75 6.25z" fill="#fff"/><path d="M42.28 5.637a1.042 1.042 0 00-1.474 0l-8.083 8.084a1.042 1.042 0 001.473 1.473l8.083-8.084a1.042 1.042 0 000-1.473zm-13.549 8.625l-6.692-1.908a1.032 1.032 0 00-1.285.717 1.04 1.04 0 00.715 1.287l6.691 1.909a1.043 1.043 0 00.57-2.004zm-11.606-.464a1.042 1.042 0 00-1.463-.167l-7.854 6.263a1.04 1.04 0 00.65 1.856c.227 0 .457-.075.648-.225l7.854-6.262a1.04 1.04 0 00.165-1.465z" fill="#fff"/></svg>