<svg width="24" height="30" fill="none" xmlns="http://www.w3.org/2000/svg"><path d="M16.324.232A.736.736 0 0015.798 0H3.98C1.8 0 0 1.775 0 3.935v22.13C0 28.225 1.8 30 3.98 30h16.04C22.2 30 24 28.225 24 26.065V8.493a.776.776 0 00-.212-.508L16.324.232zm.213 2.326l4.997 5.196h-3.249a1.734 1.734 0 01-1.748-1.725V2.558zm3.483 25.993H3.98c-1.368 0-2.517-1.123-2.517-2.486V3.935c0-1.355 1.142-2.486 2.518-2.486h11.092v4.58c0 1.76 1.434 3.174 3.212 3.174h4.252v16.862c0 1.363-1.142 2.486-2.517 2.486z" fill="#fff"/><path d="M18.022 23.55H5.978a.73.73 0 00-.732.725c0 .399.33.725.732.725h12.051a.73.73 0 00.732-.725.732.732 0 00-.74-.724zm-6.556-2.6a.74.74 0 00.534.231.74.74 0 00.534-.232l4.288-4.558a.717.717 0 00-.037-1.021.734.734 0 00-1.031.036l-3.022 3.21v-7.913A.73.73 0 0012 9.978a.73.73 0 00-.732.725v7.913l-3.014-3.21a.734.734 0 00-1.032-.036.718.718 0 00-.037 1.021l4.28 4.558z" fill="#fff"/></svg>