<svg width="45" height="15" fill="none" xmlns="http://www.w3.org/2000/svg"><g clip-path="url(#clip0)"><path d="M28.81 2.126a4.033 4.033 0 00-3-1.306 3.77 3.77 0 00-2.357.814 4.823 4.823 0 00-.953.995 4.821 4.821 0 00-.953-.995A3.773 3.773 0 0019.19.82a4.034 4.034 0 00-3 1.306C15.423 2.96 15 4.096 15 5.328c0 1.269.473 2.43 1.488 3.655.908 1.095 2.213 2.207 3.724 3.495.516.44 1.1.939 1.708 1.47a.88.88 0 001.16 0c.607-.531 1.192-1.03 1.709-1.47 1.51-1.288 2.815-2.4 3.723-3.495C29.527 7.758 30 6.597 30 5.328c0-1.232-.423-2.37-1.19-3.202z" fill="#FF114D"/></g><g clip-path="url(#clip1)"><path d="M44.207 3.418a2.69 2.69 0 00-2-.871c-.578 0-1.106.182-1.572.542a3.215 3.215 0 00-.635.664c-.188-.26-.4-.482-.635-.664a2.515 2.515 0 00-1.572-.542 2.69 2.69 0 00-2 .87C35.282 3.973 35 4.73 35 5.553c0 .846.315 1.62.992 2.437.605.73 1.475 1.471 2.483 2.33.344.293.733.625 1.138.98a.586.586 0 00.773 0c.405-.354.795-.687 1.14-.98 1.007-.859 1.877-1.6 2.482-2.33.677-.817.992-1.591.992-2.437 0-.822-.282-1.58-.793-2.134z" fill="#FF114D"/></g><g clip-path="url(#clip2)"><path d="M9.207 3.418a2.689 2.689 0 00-2-.871c-.578 0-1.106.182-1.572.542A3.215 3.215 0 005 3.753c-.188-.26-.4-.482-.635-.664a2.515 2.515 0 00-1.572-.542 2.69 2.69 0 00-2 .87C.282 3.973 0 4.73 0 5.553c0 .846.315 1.62.992 2.437.605.73 1.475 1.471 2.483 2.33.344.293.734.625 1.138.98a.586.586 0 00.773 0c.405-.354.795-.687 1.14-.98 1.007-.859 1.877-1.6 2.482-2.33.677-.817.992-1.591.992-2.437 0-.822-.282-1.58-.793-2.134z" fill="#FF114D"/></g><defs><clipPath id="clip0"><path fill="#fff" transform="translate(15)" d="M0 0h15v15H0z"/></clipPath><clipPath id="clip1"><path fill="#fff" transform="translate(35 2)" d="M0 0h10v10H0z"/></clipPath><clipPath id="clip2"><path fill="#fff" transform="translate(0 2)" d="M0 0h10v10H0z"/></clipPath></defs></svg>