<svg width="15" height="36" fill="none" xmlns="http://www.w3.org/2000/svg"><g clip-path="url(#clip0)"><path d="M13.781 23.158a4.14 4.14 0 00-2.946-1.22 4.14 4.14 0 00-2.947 1.22l-.388.388-.388-.388a4.14 4.14 0 00-2.947-1.22 4.14 4.14 0 00-2.946 1.22 4.172 4.172 0 000 5.893l5.822 5.823a.634.634 0 00.463.188.64.64 0 00.455-.188l5.822-5.823a4.172 4.172 0 000-5.893zm-.91 4.983L7.5 33.512l-5.371-5.37a2.883 2.883 0 010-4.074 2.862 2.862 0 012.036-.843c.77 0 1.493.3 2.037.843l.843.844a.663.663 0 00.91 0l.843-.844a2.86 2.86 0 012.037-.843c.769 0 1.492.3 2.036.843a2.883 2.883 0 010 4.073z" fill="#FF114D"/></g><path fill="#FF114D" d="M7 0h1v21H7z"/><defs><clipPath id="clip0"><path fill="#fff" transform="translate(0 21)" d="M0 0h15v15H0z"/></clipPath></defs></svg>