<svg width="227" height="66" fill="none" xmlns="http://www.w3.org/2000/svg"><path d="M208.043 32.802v5.321c0 2.432-.524 4.053-1.607 4.864-1.048.81-2.795 1.233-5.206 1.233-1.503 0-2.621-.14-3.39-.352-.733-.247-1.222-.776-1.432-1.621v6.731h-4.857V27.656h4.577v1.622c.28-.705.874-1.234 1.712-1.516.839-.282 2.097-.423 3.739-.423 1.363 0 2.481.106 3.355.353.873.211 1.502.599 1.956 1.092.455.494.734 1.057.874 1.657.21.563.279 1.374.279 2.36zm-4.856 5.956v-5.992c0-1.057-.21-1.726-.594-2.008-.385-.282-1.363-.423-2.866-.423-1.362 0-2.271.176-2.69.528-.419.353-.629.987-.629 1.868v5.991c0 .952.21 1.622.594 1.939.384.317 1.293.493 2.725.493 1.433 0 2.341-.176 2.761-.493.454-.282.699-.916.699-1.903zm22.921-11.102l-8.106 21.357h-4.927l2.236-5.25-6.429-16.107h5.276l3.634 11.49 3.285-11.49h5.031zm-37.003 5.146v5.321c0 2.432-.524 4.053-1.607 4.864-1.048.81-2.796 1.233-5.206 1.233-1.503 0-2.621-.14-3.39-.352-.734-.247-1.223-.776-1.432-1.621v6.731h-4.857V27.656h4.577v1.622c.28-.705.874-1.234 1.712-1.516.839-.282 2.097-.423 3.739-.423 1.363 0 2.481.106 3.354.353.874.211 1.503.599 1.957 1.092.454.494.734 1.057.874 1.657.209.563.279 1.374.279 2.36zm-4.857 5.956v-5.992c0-1.057-.209-1.726-.594-2.008-.384-.282-1.362-.423-2.865-.423-1.363 0-2.271.176-2.69.528-.42.353-.629.987-.629 1.868v5.991c0 .952.209 1.622.594 1.939.384.317 1.292.493 2.725.493s2.341-.176 2.76-.493c.49-.282.699-.916.699-1.903zm-14.011 5.145h-4.752v-1.48a3.163 3.163 0 01-1.538 1.41c-.664.282-1.887.422-3.669.422-2.166 0-3.599-.352-4.332-1.022-.699-.67-1.049-2.079-1.049-4.193 0-1.939.35-3.278 1.084-4.018.733-.74 2.026-1.128 3.913-1.128h5.451v-1.092c0-.987-.245-1.621-.699-1.974-.454-.317-1.398-.493-2.865-.493-1.363 0-3.25.14-5.661.387v-3.1a53.732 53.732 0 016.15-.353c2.97 0 5.032.352 6.185 1.092 1.153.74 1.747 2.15 1.747 4.3v11.242h.035zm-4.857-4.158v-3.172h-3.32c-1.048 0-1.747.14-1.991.352-.28.247-.385.916-.385 1.974 0 1.057.14 1.691.42 1.903.279.211.978.352 2.096.352h1.223c.28 0 .559-.035.874-.07.314-.036.524-.106.664-.212.104-.105.244-.246.314-.423.035-.176.105-.423.105-.704zm-12.894 4.158h-5.171v-9.34h-9.19v9.34h-5.206v-21.78h5.206v8.705h9.19v-8.705h5.171v21.78zm-21.943-6.802h-10.447v1.48c0 .917.314 1.586.978 2.01.629.422 1.852.634 3.634.634 1.607 0 3.389-.247 5.381-.705v3.136a31.059 31.059 0 01-6.325.635c-5.695 0-8.56-1.762-8.56-5.287V33.12c0-2.08.664-3.56 1.991-4.476 1.328-.88 3.32-1.34 5.941-1.34 2.48 0 4.332.424 5.555 1.27 1.223.846 1.817 2.36 1.817 4.546v3.98h.035zm-4.612-2.784v-2.361c0-.529-.21-.916-.629-1.198-.419-.282-1.153-.423-2.201-.423-1.188 0-1.957.14-2.376.423-.42.282-.629.67-.629 1.198v2.361h5.835zm-9.784-12.194l-6.918 21.78h-5.137L99.969 28.08l-4.263 15.824H90.57l-6.674-21.78h5.381l4.193 15.895 4.193-15.895h4.822l4.542 15.895 3.844-15.895h5.276z" fill="#FF114D"/><path fill-rule="evenodd" clip-rule="evenodd" d="M26.383 54.37c1.572-1.621 2.34-2.432 3.738-5.18l-2.446 16.528c-1.537-1.692-2.515-6.026-.14-8.916l-1.152-2.432zm14.815-29.462c-2.306-.247-4.123-2.22-4.123-4.617 0-2.573 2.061-4.652 4.612-4.652 2.55 0 4.612 2.079 4.612 4.652a4.65 4.65 0 01-1.887 3.77c1.328 8.494 1.433 15.542-2.9 29.358 1.852 3.03.245 10.537-1.817 12.405l-3.39-25.41c-2.48.775-7.232-.14-8.14-1.374 7.337-.459 12.508-4.547 14.116-12.511-2.83 9.127-8.91 10.89-15.898 11.982 1.467 2.22 4.472 2.996 6.08 3.172-1.713 5.216-3.425 9.656-12.405 17.269l-6.779-9.128c3.005-.282 5.94 2.678 6.465 5.357 6.114-6.837 6.673-16.67 2.655-24.705a4.256 4.256 0 01-3.739-4.23c0-2.36 1.887-4.264 4.228-4.264 2.341 0 4.228 1.903 4.228 4.265a4.294 4.294 0 01-2.935 4.088c5.137 5.004 15.13 1.092 17.017-5.428zm7.337 38.273C87.74 18.352 44.727-3.181 29.562 18.352 12.196 3.797-4.296 27.515 15.76 48.485-16.176 28.009 8.423-3.322 28.863 11.656c21.524-31.788 76.313 8.564 19.672 51.525zm-3.668-17.41L42.7 53.454l3.32 11.348c1.537-2.89 1.817-9.445-.979-11.63l-.174-7.401z" fill="#FF114D"/></svg>