<svg width="50" height="50" fill="none" xmlns="http://www.w3.org/2000/svg"><path d="M50 37.5V14.167A4.172 4.172 0 0045.833 10h-9.166V0H35v19.167c0 .46.373.833.833.833h2.825L25 28.195 11.342 20h2.825c.46 0 .833-.373.833-.833V0h-1.667v10H4.167A4.172 4.172 0 000 14.167V37.5a4.172 4.172 0 004.167 4.167h13.651L16.152 45H.833a.833.833 0 00-.833.833C0 50 4.39 50 5.833 50h38.334C45.609 50 50 50 50 45.833a.833.833 0 00-.833-.833H33.848l-1.666-3.333h13.651A4.172 4.172 0 0050 37.5zM13.333 18.333h-5a.833.833 0 00-.429 1.548l16.667 10a.833.833 0 00.858 0l16.667-10a.833.833 0 00-.43-1.548h-5V15H45v20H5V15h8.333v3.333zm34.9 28.334c-.291 1.026-1.297 1.666-4.066 1.666H5.833c-2.769 0-3.775-.64-4.066-1.666h46.466zM18.015 45l1.667-3.333h10.636L31.985 45h-13.97zM4.167 40a2.5 2.5 0 01-2.5-2.5V14.167a2.5 2.5 0 012.5-2.5h9.166v1.666H4.167a.833.833 0 00-.834.834v21.666c0 .46.373.834.834.834h41.666c.46 0 .834-.373.834-.834V14.167a.833.833 0 00-.834-.834h-9.166v-1.666h9.166a2.5 2.5 0 012.5 2.5V37.5a2.5 2.5 0 01-2.5 2.5H4.167z" fill="#FF114D"/><path d="M28.636 12.538a5.784 5.784 0 002.197-4.205c0-5.51-3.172-6.666-5.833-6.666-2.66 0-5.833 1.156-5.833 6.666a5.784 5.784 0 002.197 4.208 4.403 4.403 0 00-3.864 4.376V20h1.667v-3.083a2.75 2.75 0 012.75-2.75h6.166a2.75 2.75 0 012.75 2.75V20H32.5v-3.083a4.403 4.403 0 00-3.864-4.379zm-7.76-5.087c.226-2.793 1.54-4.118 4.124-4.118 2.365 0 3.667 1.119 4.04 3.452l-2.777-1.667a.833.833 0 00-1.22.451c-.421 1.265-2.698 1.744-4.166 1.882zM25 12.5a5.25 5.25 0 01-4.05-3.377v-.002c1.426-.118 4-.55 5.2-2.129l2.978 1.787C28.793 10.822 26.279 12.5 25 12.5zM41.667 30v-1.667H40V30h-1.667v1.667H40v1.666h1.667v-1.666h1.666V30h-1.666z" fill="#FF114D"/></svg>