<svg width="51" height="46" fill="none" xmlns="http://www.w3.org/2000/svg"><path d="M47.593 0H2.847A2.85 2.85 0 000 2.847v33.356a2.85 2.85 0 002.847 2.847h15.476l-.976 2.441h-4.33a.814.814 0 00-.814.813v2.441a.813.813 0 00.814.814h24.406a.814.814 0 00.814-.814v-2.44a.813.813 0 00-.814-.814h-4.33l-.976-2.44h15.476a2.85 2.85 0 002.847-2.848V2.847A2.85 2.85 0 0047.593 0zM36.61 43.118v.814H13.83v-.814h22.78zM19.1 41.491l.976-2.44h10.288l.976 2.44H19.1zm29.713-5.288a1.221 1.221 0 01-1.22 1.22H2.847a1.221 1.221 0 01-1.22-1.22v-2.034h47.186v2.034zm0-3.661H1.627V2.847a1.221 1.221 0 011.22-1.22h44.746a1.221 1.221 0 011.22 1.22v29.695z" fill="#FF114D"/><path d="M23.186 3.254H6.102a2.85 2.85 0 00-2.848 2.848v21.965a2.85 2.85 0 002.848 2.848h17.084a2.85 2.85 0 002.848-2.848V6.102a2.85 2.85 0 00-2.848-2.848zm-2.034 26.034h-1.627v-3.254a.814.814 0 00-1.627 0v3.254H11.39v-3.254a.814.814 0 10-1.627 0v3.254H8.135V25.22a3.258 3.258 0 013.255-3.254h.954a2.438 2.438 0 004.6 0h.954a3.258 3.258 0 013.254 3.254v4.068zm-9.117-15.43c1.316 0 3.35-.237 5.863-1.3v2.9a3.254 3.254 0 01-6.508 0v-1.62c.19.013.405.02.645.02zm-.645-1.65v-.005a3.258 3.258 0 013.254-3.254c1.286 0 2.426.818 2.95 1.967-2.018.899-3.673 1.197-4.75 1.283a9.4 9.4 0 01-1.454.008zm4.067 8.062v.882a.813.813 0 11-1.627 0v-.882a4.82 4.82 0 001.627 0zm8.95 7.797a1.221 1.221 0 01-1.22 1.22h-.408V25.22a4.886 4.886 0 00-4.88-4.881h-.815v-.657a4.883 4.883 0 002.441-4.225v-3.254a5.002 5.002 0 00-1.42-3.39 4.785 4.785 0 00-3.461-1.491 4.886 4.886 0 00-4.881 4.881v3.254a4.882 4.882 0 002.44 4.225v.657h-.813a4.887 4.887 0 00-4.882 4.881v4.068h-.406a1.221 1.221 0 01-1.22-1.22V6.101a1.221 1.221 0 011.22-1.22h17.084a1.221 1.221 0 011.22 1.22v21.965zM44.338 3.254h-13.83a2.85 2.85 0 00-2.847 2.848v21.965a2.851 2.851 0 002.847 2.848h13.83a2.85 2.85 0 002.848-2.848V6.102a2.85 2.85 0 00-2.848-2.848zm1.22 24.813a1.221 1.221 0 01-1.22 1.22h-13.83a1.221 1.221 0 01-1.22-1.22V8.95h16.27v19.118zM29.289 7.322v-1.22a1.222 1.222 0 011.22-1.22h13.83a1.222 1.222 0 011.22 1.22v1.22h-16.27z" fill="#FF114D"/><path d="M30.915 14.644h3.254a.814.814 0 00.814-.814v-2.44a.814.814 0 00-.814-.814h-3.254a.813.813 0 00-.814.814v2.44a.814.814 0 00.814.814zm.813-2.44h1.627v.813h-1.627v-.814zm4.882-.001h7.322a.814.814 0 100-1.627H36.61a.814.814 0 100 1.627zm0 2.441h3.254a.813.813 0 100-1.627H36.61a.814.814 0 100 1.627zm-5.695 4.881h3.254a.814.814 0 00.814-.813V16.27a.814.814 0 00-.814-.814h-3.254a.813.813 0 00-.814.814v2.44a.814.814 0 00.814.814zm.813-2.44h1.627v.813h-1.627v-.814zm4.882-.001h7.322a.814.814 0 100-1.627H36.61a.814.814 0 100 1.627zm0 2.441h3.254a.814.814 0 000-1.627H36.61a.814.814 0 000 1.627zm-5.695 4.882h3.254a.814.814 0 00.814-.814v-2.44a.814.814 0 00-.814-.814h-3.254a.813.813 0 00-.814.813v2.44a.814.814 0 00.814.815zm.813-2.441h1.627v.813h-1.627v-.813zm4.882 0h7.322a.814.814 0 100-1.627H36.61a.814.814 0 100 1.627zm0 2.441h3.254a.814.814 0 000-1.628H36.61a.814.814 0 000 1.628z" fill="#FF114D"/></svg>