<svg width="50" height="50" fill="none" xmlns="http://www.w3.org/2000/svg"><path d="M49.268 30.332a.732.732 0 00.732-.733V14.031a3.666 3.666 0 00-3.662-3.662h-7.682V3.662A3.666 3.666 0 0034.994 0H15.006a3.666 3.666 0 00-3.662 3.662v6.707H3.662A3.666 3.666 0 000 14.031v24.867a3.666 3.666 0 003.662 3.662h17.751v3.045h-.925a3.373 3.373 0 00-3.37 3.37c0 .565.46 1.025 1.026 1.025h13.712c.565 0 1.025-.46 1.025-1.025a3.373 3.373 0 00-3.37-3.37h-.924v-3.044h17.75A3.666 3.666 0 0050 38.898v-5.88a.732.732 0 10-1.465 0v5.88a2.2 2.2 0 01-2.197 2.198H3.662a2.2 2.2 0 01-2.197-2.198V14.031a2.2 2.2 0 012.197-2.197h7.682v1.465H3.955c-.565 0-1.025.46-1.025 1.025v24.574c0 .405.328.733.732.733h42.383c.565 0 1.025-.46 1.025-1.026v-24.28c0-.566-.46-1.026-1.025-1.026h-7.39v-1.465h7.683a2.2 2.2 0 012.197 2.197V29.6c0 .405.328.733.733.733zM22.878 42.56h4.244v3.045h-4.244v-3.044zm6.634 4.51c.899 0 1.654.626 1.853 1.465h-12.73a1.908 1.908 0 011.853-1.465h9.024zm-18.168-8.904h-6.95V14.764h6.95v23.402zm25.847 0H12.809V3.662a2.2 2.2 0 012.197-2.197h19.988a2.2 2.2 0 012.197 2.197v34.504zm8.414-23.402v23.402h-6.95V14.764h6.95zm-12.172 11.7H16.567a.732.732 0 000 1.466h16.866a.732.732 0 100-1.465zM25 4.395a9.288 9.288 0 00-5.606 1.866.732.732 0 10.877 1.173A7.833 7.833 0 0125 5.859c4.362 0 7.91 3.549 7.91 7.91 0 4.362-3.548 7.91-7.91 7.91s-7.91-3.548-7.91-7.91c0-1.413.379-2.801 1.096-4.014a.732.732 0 10-1.26-.745 9.353 9.353 0 00-1.301 4.76c0 5.169 4.206 9.375 9.375 9.375 5.17 0 9.375-4.206 9.375-9.375 0-5.17-4.206-9.375-9.375-9.375zM21.625 17.54c1.021 1.03 2.772 1.037 3.798 0l4.574-4.575c.878-.87.83-2.355-.076-3.18-.869-.79-2.213-.745-3.06.102l-3.337 3.336-.414-.414c-.843-.851-2.262-.845-3.107 0a2.2 2.2 0 000 3.108l1.622 1.623zm-.587-3.695a.739.739 0 011.036 0l.725.725a1.034 1.034 0 001.45 0l3.647-3.647c.289-.289.755-.313 1.04-.055a.74.74 0 01.026 1.061l-4.575 4.574c-.23.23-.536.357-.863.357-.326 0-.633-.127-.863-.356L21.04 14.88a.733.733 0 010-1.036zM33.433 30.86H16.567a.732.732 0 100 1.465h16.866a.732.732 0 100-1.465z" fill="#FF114D"/></svg>