<svg width="50" height="50" fill="none" xmlns="http://www.w3.org/2000/svg"><path d="M20.833 20.833a.833.833 0 00-1.422-.59l-4.167 4.168a.833.833 0 000 1.178l4.167 4.167a.833.833 0 001.178-1.179L17.012 25l3.577-3.578a.833.833 0 00.244-.589zm9.757-.589a.833.833 0 00-1.18 1.178L32.989 25l-3.577 3.577a.834.834 0 101.178 1.178l4.167-4.166a.833.833 0 000-1.178l-4.167-4.167zm-3.694-1.879a.837.837 0 00-1.03.573l-3.334 11.666a.834.834 0 001.602.458l3.334-11.667a.834.834 0 00-.572-1.03z" fill="#FF114D"/><path d="M25 9.166c-8.744 0-15.833 7.09-15.833 15.834S16.256 40.833 25 40.833c8.745 0 15.833-7.089 15.833-15.833C40.823 16.26 33.74 9.176 25 9.166zm0 30c-7.824 0-14.167-6.342-14.167-14.166 0-7.824 6.343-14.167 14.167-14.167S39.167 17.176 39.167 25C39.157 32.82 32.82 39.158 25 39.166z" fill="#FF114D"/><path d="M49.862 22.359a.834.834 0 00-.52-.684l-5.071-2.03a19.913 19.913 0 00-1.862-4.477l2.154-5.032a.832.832 0 00-.116-.85 25.32 25.32 0 00-3.733-3.733.833.833 0 00-.85-.116L34.83 7.59a19.883 19.883 0 00-4.476-1.862L28.323.656a.833.833 0 00-.683-.518 25.343 25.343 0 00-5.28 0 .833.833 0 00-.684.518L19.645 5.73a19.881 19.881 0 00-4.476 1.862l-5.032-2.154a.832.832 0 00-.85.116 25.383 25.383 0 00-3.734 3.734.833.833 0 00-.116.85l2.154 5.031a19.916 19.916 0 00-1.862 4.477l-5.072 2.03a.834.834 0 00-.519.684 25.272 25.272 0 000 5.281.834.834 0 00.52.684l5.071 2.03a19.916 19.916 0 001.862 4.477l-2.154 5.032a.833.833 0 00.116.85 25.325 25.325 0 003.733 3.733c.24.193.568.238.85.117l5.033-2.155a19.841 19.841 0 004.476 1.862l2.031 5.073a.833.833 0 00.684.518 25.26 25.26 0 005.28 0 .833.833 0 00.683-.518l2.032-5.073a19.887 19.887 0 004.476-1.862l5.032 2.155c.283.12.61.076.85-.117a25.385 25.385 0 003.734-3.733.833.833 0 00.116-.85l-2.154-5.032c.8-1.41 1.426-2.914 1.862-4.477l5.072-2.03a.834.834 0 00.519-.684 25.267 25.267 0 000-5.281zm-1.61 4.606l-4.988 1.997a.834.834 0 00-.498.568 18.219 18.219 0 01-2.004 4.818.835.835 0 00-.05.754l2.12 4.95a24.01 24.01 0 01-2.779 2.779l-4.95-2.12a.83.83 0 00-.755.05 18.214 18.214 0 01-4.817 2.005.834.834 0 00-.568.497l-1.998 4.99a24.006 24.006 0 01-3.93 0l-1.998-4.99a.834.834 0 00-.567-.497 18.214 18.214 0 01-4.818-2.005.83.83 0 00-.754-.05l-4.95 2.12A23.501 23.501 0 018.5 41.499a23.506 23.506 0 01-1.333-1.446l2.12-4.95a.834.834 0 00-.05-.755 18.22 18.22 0 01-2.004-4.818.834.834 0 00-.498-.568l-4.989-1.997A23.478 23.478 0 011.667 25c0-.674.027-1.333.08-1.966l4.99-1.997a.836.836 0 00.497-.568 18.219 18.219 0 012.004-4.818.835.835 0 00.05-.754l-2.12-4.95a24.032 24.032 0 012.779-2.779l4.95 2.12a.83.83 0 00.755-.05 18.214 18.214 0 014.818-2.004.834.834 0 00.567-.498l1.998-4.99a24.001 24.001 0 013.93 0l1.998 4.99c.099.247.31.432.567.497a18.214 18.214 0 014.818 2.005.83.83 0 00.755.05l4.95-2.12c.487.412.972.859 1.446 1.333.477.476.924.961 1.333 1.446l-2.12 4.95a.835.835 0 00.05.754 18.22 18.22 0 012.004 4.818c.066.258.25.469.498.568l4.989 1.997c.053.633.08 1.292.08 1.966 0 .674-.027 1.332-.08 1.965z" fill="#FF114D"/></svg>